<?xml version="1.0" encoding="UTF-8" standalone="no"?>
<!DOCTYPE svg PUBLIC "-//W3C//DTD SVG 1.1//EN"
 "http://www.w3.org/Graphics/SVG/1.1/DTD/svg11.dtd">
<!-- Generated by graphviz version 2.42.4 (0)
 -->
<!-- Title: detail::format_float Pages: 1 -->
<svg width="942pt" height="991pt"
 viewBox="0.00 0.00 942.00 991.26" xmlns="http://www.w3.org/2000/svg" xmlns:xlink="http://www.w3.org/1999/xlink">
<g id="graph0" class="graph" transform="scale(1 1) rotate(0) translate(4 987.26)">
<title>detail::format_float</title>
<!-- Node1 -->
<g id="Node000001" class="node">
<title>Node1</title>
<g id="a_Node000001"><a xlink:title=" ">
<polygon fill="#999999" stroke="#666666" points="110,-372.5 0,-372.5 0,-353.5 110,-353.5 110,-372.5"/>
<text text-anchor="middle" x="55" y="-360.5" font-family="Helvetica,sans-Serif" font-size="10.00">detail::format_float</text>
</a>
</g>
</g>
<!-- Node2 -->
<g id="Node000002" class="node">
<title>Node2</title>
<g id="a_Node000002"><a xlink:href="namespacedetail.html#a44758fbcb25a6fc3967fdc79e987fb93" target="_top" xlink:title=" ">
<polygon fill="white" stroke="#666666" points="461.5,-819.5 331.5,-819.5 331.5,-800.5 461.5,-800.5 461.5,-819.5"/>
<text text-anchor="middle" x="396.5" y="-807.5" font-family="Helvetica,sans-Serif" font-size="10.00">detail::adjust_precision</text>
</a>
</g>
</g>
<!-- Node1&#45;&gt;Node2 -->
<g id="edge1_Node000001_Node000002" class="edge">
<title>Node1&#45;&gt;Node2</title>
<g id="a_edge1_Node000001_Node000002"><a xlink:title=" ">
<path fill="none" stroke="#63b8ff" d="M56.36,-372.71C58.35,-413.54 70.82,-573.87 146,-673 197.41,-740.79 292.51,-779.36 349.29,-797.35"/>
<polygon fill="#63b8ff" stroke="#63b8ff" points="348.5,-800.77 359.09,-800.38 350.56,-794.08 348.5,-800.77"/>
</a>
</g>
</g>
<!-- Node3 -->
<g id="Node000003" class="node">
<title>Node3</title>
<g id="a_Node000003"><a xlink:href="classbasic__specs.html#aba82b10e634cd4cf7a2d107efc8269c8" target="_top" xlink:title=" ">
<polygon fill="white" stroke="#666666" points="266,-372.5 172,-372.5 172,-353.5 266,-353.5 266,-372.5"/>
<text text-anchor="middle" x="219" y="-360.5" font-family="Helvetica,sans-Serif" font-size="10.00">basic_specs::alt</text>
</a>
</g>
</g>
<!-- Node1&#45;&gt;Node3 -->
<g id="edge2_Node000001_Node000003" class="edge">
<title>Node1&#45;&gt;Node3</title>
<g id="a_edge2_Node000001_Node000003"><a xlink:title=" ">
<path fill="none" stroke="#63b8ff" d="M110.39,-363C126.91,-363 145.09,-363 161.73,-363"/>
<polygon fill="#63b8ff" stroke="#63b8ff" points="161.86,-366.5 171.86,-363 161.86,-359.5 161.86,-366.5"/>
</a>
</g>
</g>
<!-- Node4 -->
<g id="Node000004" class="node">
<title>Node4</title>
<g id="a_Node000004"><a xlink:href="namespacedetail.html#ab378866dca64d15fbf7b02be69ed9cb4" target="_top" xlink:title=" ">
<polygon fill="white" stroke="#666666" points="276,-335.5 162,-335.5 162,-316.5 276,-316.5 276,-335.5"/>
<text text-anchor="middle" x="219" y="-323.5" font-family="Helvetica,sans-Serif" font-size="10.00">detail::convert_float</text>
</a>
</g>
</g>
<!-- Node1&#45;&gt;Node4 -->
<g id="edge3_Node000001_Node000004" class="edge">
<title>Node1&#45;&gt;Node4</title>
<g id="a_edge3_Node000001_Node000004"><a xlink:title=" ">
<path fill="none" stroke="#63b8ff" d="M97.72,-353.47C118.61,-348.7 144.11,-342.88 166.24,-337.82"/>
<polygon fill="#63b8ff" stroke="#63b8ff" points="167.17,-341.2 176.14,-335.56 165.61,-334.37 167.17,-341.2"/>
</a>
</g>
</g>
<!-- Node5 -->
<g id="Node000005" class="node">
<title>Node5</title>
<g id="a_Node000005"><a xlink:href="namespacedetail.html#af252d1b8eaeab79d234b012c14fd58b0" target="_top" xlink:title=" ">
<polygon fill="white" stroke="#666666" points="613,-857.5 506,-857.5 506,-838.5 613,-838.5 613,-857.5"/>
<text text-anchor="middle" x="559.5" y="-845.5" font-family="Helvetica,sans-Serif" font-size="10.00">detail::countl_zero</text>
</a>
</g>
</g>
<!-- Node1&#45;&gt;Node5 -->
<g id="edge4_Node000001_Node000005" class="edge">
<title>Node1&#45;&gt;Node5</title>
<g id="a_edge4_Node000001_Node000005"><a xlink:title=" ">
<path fill="none" stroke="#63b8ff" d="M55.55,-372.63C53.9,-418.67 52.54,-618.91 146,-737 229.62,-842.66 402.32,-854.25 495.54,-852.08"/>
<polygon fill="#63b8ff" stroke="#63b8ff" points="495.79,-855.57 505.68,-851.78 495.58,-848.58 495.79,-855.57"/>
</a>
</g>
</g>
<!-- Node7 -->
<g id="Node000007" class="node">
<title>Node7</title>
<g id="a_Node000007"><a xlink:href="namespacedetail.html#a75ed2634319883d038944529dbb954e2" target="_top" xlink:title=" ">
<polygon fill="white" stroke="#666666" points="768,-925 662,-925 662,-895 768,-895 768,-925"/>
<text text-anchor="start" x="670" y="-913" font-family="Helvetica,sans-Serif" font-size="10.00">detail::is_constant</text>
<text text-anchor="middle" x="715" y="-902" font-family="Helvetica,sans-Serif" font-size="10.00">_evaluated</text>
</a>
</g>
</g>
<!-- Node1&#45;&gt;Node7 -->
<g id="edge34_Node000001_Node000007" class="edge">
<title>Node1&#45;&gt;Node7</title>
<g id="a_edge34_Node000001_Node000007"><a xlink:title=" ">
<path fill="none" stroke="#63b8ff" d="M56.07,-372.64C56.77,-439.08 64.32,-828.95 146,-905 290.53,-1039.56 556.49,-966.67 665.48,-928.54"/>
<polygon fill="#63b8ff" stroke="#63b8ff" points="666.97,-931.72 675.22,-925.08 664.63,-925.13 666.97,-931.72"/>
</a>
</g>
</g>
<!-- Node9 -->
<g id="Node000009" class="node">
<title>Node9</title>
<g id="a_Node000009"><a xlink:href="namespacedetail.html#a818b390bd30ad25b638f7b067cb50f15" target="_top" xlink:title=" ">
<polygon fill="white" stroke="#666666" points="433.5,-486.5 359.5,-486.5 359.5,-467.5 433.5,-467.5 433.5,-486.5"/>
<text text-anchor="middle" x="396.5" y="-474.5" font-family="Helvetica,sans-Serif" font-size="10.00">detail::fill_n</text>
</a>
</g>
</g>
<!-- Node1&#45;&gt;Node9 -->
<g id="edge8_Node000001_Node000009" class="edge">
<title>Node1&#45;&gt;Node9</title>
<g id="a_edge8_Node000001_Node000009"><a xlink:title=" ">
<path fill="none" stroke="#63b8ff" d="M62.26,-372.76C75.21,-392.02 107.03,-434.62 146,-453 211.36,-483.82 296.91,-484.76 348.95,-481.61"/>
<polygon fill="#63b8ff" stroke="#63b8ff" points="349.48,-485.08 359.21,-480.91 349,-478.1 349.48,-485.08"/>
</a>
</g>
</g>
<!-- Node11 -->
<g id="Node000011" class="node">
<title>Node11</title>
<g id="a_Node000011"><a xlink:href="namespacedetail_1_1dragonbox.html#a603e1256fa5d6fc5badb4e99c1266fa3" target="_top" xlink:title=" ">
<polygon fill="white" stroke="#666666" points="273,-298 165,-298 165,-268 273,-268 273,-298"/>
<text text-anchor="start" x="173" y="-286" font-family="Helvetica,sans-Serif" font-size="10.00">detail::dragonbox::</text>
<text text-anchor="middle" x="219" y="-275" font-family="Helvetica,sans-Serif" font-size="10.00">floor_log10_pow2</text>
</a>
</g>
</g>
<!-- Node1&#45;&gt;Node11 -->
<g id="edge11_Node000001_Node000011" class="edge">
<title>Node1&#45;&gt;Node11</title>
<g id="a_edge11_Node000001_Node000011"><a xlink:title=" ">
<path fill="none" stroke="#63b8ff" d="M69.51,-353.47C86.68,-341.66 117.52,-321.45 146,-308 150.59,-305.83 155.43,-303.75 160.33,-301.78"/>
<polygon fill="#63b8ff" stroke="#63b8ff" points="161.72,-304.99 169.79,-298.13 159.2,-298.46 161.72,-304.99"/>
</a>
</g>
</g>
<!-- Node12 -->
<g id="Node000012" class="node">
<title>Node12</title>
<g id="a_Node000012"><a xlink:href="namespacedetail_1_1dragonbox.html#aa3840e47a7610ff72087d1c812c343da" target="_top" xlink:title=" ">
<polygon fill="white" stroke="#666666" points="273,-250 165,-250 165,-220 273,-220 273,-250"/>
<text text-anchor="start" x="173" y="-238" font-family="Helvetica,sans-Serif" font-size="10.00">detail::dragonbox::</text>
<text text-anchor="middle" x="219" y="-227" font-family="Helvetica,sans-Serif" font-size="10.00">floor_log2_pow10</text>
</a>
</g>
</g>
<!-- Node1&#45;&gt;Node12 -->
<g id="edge12_Node000001_Node000012" class="edge">
<title>Node1&#45;&gt;Node12</title>
<g id="a_edge12_Node000001_Node000012"><a xlink:title=" ">
<path fill="none" stroke="#63b8ff" d="M61.71,-353.45C74.36,-333.12 106.7,-285.29 146,-259 149.08,-256.94 152.36,-255.04 155.75,-253.29"/>
<polygon fill="#63b8ff" stroke="#63b8ff" points="157.34,-256.41 164.93,-249.02 154.39,-250.06 157.34,-256.41"/>
</a>
</g>
</g>
<!-- Node13 -->
<g id="Node000013" class="node">
<title>Node13</title>
<g id="a_Node000013"><a xlink:href="namespacedetail.html#af3eae8fdebff07dc2edca668eaf2f8bd" target="_top" xlink:title=" ">
<polygon fill="white" stroke="#666666" points="280,-663.5 158,-663.5 158,-644.5 280,-644.5 280,-663.5"/>
<text text-anchor="middle" x="219" y="-651.5" font-family="Helvetica,sans-Serif" font-size="10.00">detail::format_dragon</text>
</a>
</g>
</g>
<!-- Node1&#45;&gt;Node13 -->
<g id="edge13_Node000001_Node000013" class="edge">
<title>Node1&#45;&gt;Node13</title>
<g id="a_edge13_Node000001_Node000013"><a xlink:title=" ">
<path fill="none" stroke="#63b8ff" d="M61.39,-372.68C84.64,-414.45 176.61,-579.64 207.68,-635.46"/>
<polygon fill="#63b8ff" stroke="#63b8ff" points="204.67,-637.25 212.59,-644.28 210.78,-633.84 204.67,-637.25"/>
</a>
</g>
</g>
<!-- Node19 -->
<g id="Node000019" class="node">
<title>Node19</title>
<g id="a_Node000019"><a xlink:href="namespacedetail.html#a4855e668246c731a97484efc329f2aac" target="_top" xlink:title=" ">
<polygon fill="white" stroke="#666666" points="770,-599.5 660,-599.5 660,-580.5 770,-580.5 770,-599.5"/>
<text text-anchor="middle" x="715" y="-587.5" font-family="Helvetica,sans-Serif" font-size="10.00">detail::to_unsigned</text>
</a>
</g>
</g>
<!-- Node1&#45;&gt;Node19 -->
<g id="edge36_Node000001_Node000019" class="edge">
<title>Node1&#45;&gt;Node19</title>
<g id="a_edge36_Node000001_Node000019"><a xlink:title=" ">
<path fill="none" stroke="#63b8ff" d="M97.99,-372.59C113.08,-375.84 130.26,-379.33 146,-382 354.53,-417.43 438.83,-330.57 618,-443 666.48,-473.42 695.49,-538.3 707.51,-570.72"/>
<polygon fill="#63b8ff" stroke="#63b8ff" points="704.29,-572.13 710.94,-580.38 710.89,-569.78 704.29,-572.13"/>
</a>
</g>
</g>
<!-- Node25 -->
<g id="Node000025" class="node">
<title>Node25</title>
<g id="a_Node000025"><a xlink:href="base_8h.html#a2e5592bf3509e2fc090fa0f329ee551f" target="_top" xlink:title=" ">
<polygon fill="white" stroke="#666666" points="584.5,-470.5 534.5,-470.5 534.5,-451.5 584.5,-451.5 584.5,-470.5"/>
<text text-anchor="middle" x="559.5" y="-458.5" font-family="Helvetica,sans-Serif" font-size="10.00">min_of</text>
</a>
</g>
</g>
<!-- Node1&#45;&gt;Node25 -->
<g id="edge35_Node000001_Node000025" class="edge">
<title>Node1&#45;&gt;Node25</title>
<g id="a_edge35_Node000001_Node000025"><a xlink:title=" ">
<path fill="none" stroke="#63b8ff" d="M68.6,-372.57C85.31,-384.7 116.17,-405.2 146,-415 216.16,-438.06 438.44,-453.68 524.24,-458.99"/>
<polygon fill="#63b8ff" stroke="#63b8ff" points="524.29,-462.5 534.48,-459.62 524.71,-455.52 524.29,-462.5"/>
</a>
</g>
</g>
<!-- Node26 -->
<g id="Node000026" class="node">
<title>Node26</title>
<g id="a_Node000026"><a xlink:href="namespacedetail.html#a1364df07f52435e3ae4c5c12a8c2134a" target="_top" xlink:title=" ">
<polygon fill="white" stroke="#666666" points="292,-202 146,-202 146,-172 292,-172 292,-202"/>
<text text-anchor="start" x="154" y="-190" font-family="Helvetica,sans-Serif" font-size="10.00">detail::fractional</text>
<text text-anchor="middle" x="219" y="-179" font-family="Helvetica,sans-Serif" font-size="10.00">_part_rounding_thresholds</text>
</a>
</g>
</g>
<!-- Node1&#45;&gt;Node26 -->
<g id="edge32_Node000001_Node000026" class="edge">
<title>Node1&#45;&gt;Node26</title>
<g id="a_edge32_Node000001_Node000026"><a xlink:title=" ">
<path fill="none" stroke="#63b8ff" d="M59.07,-353.2C67.97,-326.37 96.36,-251.06 146,-211 147.58,-209.73 149.22,-208.52 150.93,-207.38"/>
<polygon fill="#63b8ff" stroke="#63b8ff" points="152.97,-210.24 159.84,-202.17 149.44,-204.19 152.97,-210.24"/>
</a>
</g>
</g>
<!-- Node27 -->
<g id="Node000027" class="node">
<title>Node27</title>
<g id="a_Node000027"><a xlink:href="namespacedetail_1_1dragonbox.html#af068b86ad80aba413bf748f312dc64f0" target="_top" xlink:title=" ">
<polygon fill="white" stroke="#666666" points="273,-154 165,-154 165,-124 273,-124 273,-154"/>
<text text-anchor="start" x="173" y="-142" font-family="Helvetica,sans-Serif" font-size="10.00">detail::dragonbox::</text>
<text text-anchor="middle" x="219" y="-131" font-family="Helvetica,sans-Serif" font-size="10.00">get_cached_power</text>
</a>
</g>
</g>
<!-- Node1&#45;&gt;Node27 -->
<g id="edge33_Node000001_Node000027" class="edge">
<title>Node1&#45;&gt;Node27</title>
<g id="a_edge33_Node000001_Node000027"><a xlink:title=" ">
<path fill="none" stroke="#63b8ff" d="M57.51,-353.48C63.06,-321.65 85.26,-217.89 146,-163 148.99,-160.29 152.3,-157.89 155.81,-155.76"/>
<polygon fill="#63b8ff" stroke="#63b8ff" points="157.63,-158.75 164.85,-151 154.37,-152.56 157.63,-158.75"/>
</a>
</g>
</g>
<!-- Node28 -->
<g id="Node000028" class="node">
<title>Node28</title>
<g id="a_Node000028"><a xlink:href="classbasic__specs.html#ab451ba98e651e28feab471f1871f1e5c" target="_top" xlink:title=" ">
<polygon fill="white" stroke="#666666" points="270.5,-105.5 167.5,-105.5 167.5,-86.5 270.5,-86.5 270.5,-105.5"/>
<text text-anchor="middle" x="219" y="-93.5" font-family="Helvetica,sans-Serif" font-size="10.00">basic_specs::type</text>
</a>
</g>
</g>
<!-- Node1&#45;&gt;Node28 -->
<g id="edge37_Node000001_Node000028" class="edge">
<title>Node1&#45;&gt;Node28</title>
<g id="a_edge37_Node000001_Node000028"><a xlink:title=" ">
<path fill="none" stroke="#63b8ff" d="M56.44,-353.45C58.67,-316.66 71.78,-182.82 146,-115 149.57,-111.74 153.63,-109.02 157.97,-106.77"/>
<polygon fill="#63b8ff" stroke="#63b8ff" points="159.42,-109.95 167.19,-102.75 156.62,-103.54 159.42,-109.95"/>
</a>
</g>
</g>
<!-- Node29 -->
<g id="Node000029" class="node">
<title>Node29</title>
<g id="a_Node000029"><a xlink:href="namespacedetail_1_1dragonbox.html#afb57aa963bc4232fb4bc88b845581d5a" target="_top" xlink:title=" ">
<polygon fill="white" stroke="#666666" points="450.5,-73 342.5,-73 342.5,-43 450.5,-43 450.5,-73"/>
<text text-anchor="start" x="350.5" y="-61" font-family="Helvetica,sans-Serif" font-size="10.00">detail::dragonbox::</text>
<text text-anchor="middle" x="396.5" y="-50" font-family="Helvetica,sans-Serif" font-size="10.00">umul128_upper64</text>
</a>
</g>
</g>
<!-- Node1&#45;&gt;Node29 -->
<g id="edge38_Node000001_Node000029" class="edge">
<title>Node1&#45;&gt;Node29</title>
<g id="a_edge38_Node000001_Node000029"><a xlink:title=" ">
<path fill="none" stroke="#63b8ff" d="M55.58,-353.33C54.38,-312.11 55.68,-149.91 146,-78 198.08,-36.53 277.19,-37.53 332.32,-45.03"/>
<polygon fill="#63b8ff" stroke="#63b8ff" points="331.92,-48.51 342.33,-46.49 332.94,-41.58 331.92,-48.51"/>
</a>
</g>
</g>
<!-- Node31 -->
<g id="Node000031" class="node">
<title>Node31</title>
<g id="a_Node000031"><a xlink:href="namespacedetail_1_1dragonbox.html#ab9470405474ffc0d7b8bc15071b7d515" target="_top" xlink:title=" ">
<polygon fill="white" stroke="#666666" points="274,-30 164,-30 164,0 274,0 274,-30"/>
<text text-anchor="start" x="172" y="-18" font-family="Helvetica,sans-Serif" font-size="10.00">detail::dragonbox::</text>
<text text-anchor="middle" x="219" y="-7" font-family="Helvetica,sans-Serif" font-size="10.00">umul192_upper128</text>
</a>
</g>
</g>
<!-- Node1&#45;&gt;Node31 -->
<g id="edge40_Node000001_Node000031" class="edge">
<title>Node1&#45;&gt;Node31</title>
<g id="a_edge40_Node000001_Node000031"><a xlink:title=" ">
<path fill="none" stroke="#63b8ff" d="M55.83,-353.23C55.61,-310.68 60.29,-139.5 146,-44 148.84,-40.84 152.06,-38.02 155.54,-35.5"/>
<polygon fill="#63b8ff" stroke="#63b8ff" points="157.45,-38.44 164.06,-30.16 153.73,-32.51 157.45,-38.44"/>
</a>
</g>
</g>
<!-- Node32 -->
<g id="Node000032" class="node">
<title>Node32</title>
<g id="a_Node000032"><a xlink:href="namespacedetail.html#ade16648d662a4c70e2500ae74ef7e671" target="_top" xlink:title=" ">
<polygon fill="white" stroke="#666666" points="273,-895.5 165,-895.5 165,-876.5 273,-876.5 273,-895.5"/>
<text text-anchor="middle" x="219" y="-883.5" font-family="Helvetica,sans-Serif" font-size="10.00">detail::write2digits</text>
</a>
</g>
</g>
<!-- Node1&#45;&gt;Node32 -->
<g id="edge43_Node000001_Node000032" class="edge">
<title>Node1&#45;&gt;Node32</title>
<g id="a_edge43_Node000001_Node000032"><a xlink:title=" ">
<path fill="none" stroke="#63b8ff" d="M56.44,-372.89C59.47,-436.21 79,-784.64 146,-862 149.23,-865.73 153.05,-868.88 157.22,-871.54"/>
<polygon fill="#63b8ff" stroke="#63b8ff" points="155.73,-874.71 166.2,-876.34 159.04,-868.54 155.73,-874.71"/>
</a>
</g>
</g>
<!-- Node6 -->
<g id="Node000006" class="node">
<title>Node6</title>
<g id="a_Node000006"><a xlink:href="namespacedetail.html#ad00fda1ba244e2bc2ee99476eb1d57a0" target="_top" xlink:title=" ">
<polygon fill="white" stroke="#666666" points="768.5,-863 661.5,-863 661.5,-833 768.5,-833 768.5,-863"/>
<text text-anchor="start" x="669.5" y="-851" font-family="Helvetica,sans-Serif" font-size="10.00">detail::countl_zero</text>
<text text-anchor="middle" x="715" y="-840" font-family="Helvetica,sans-Serif" font-size="10.00">_fallback</text>
</a>
</g>
</g>
<!-- Node5&#45;&gt;Node6 -->
<g id="edge5_Node000005_Node000006" class="edge">
<title>Node5&#45;&gt;Node6</title>
<g id="a_edge5_Node000005_Node000006"><a xlink:title=" ">
<path fill="none" stroke="#63b8ff" d="M613.33,-848C625.45,-848 638.47,-848 650.98,-848"/>
<polygon fill="#63b8ff" stroke="#63b8ff" points="651.34,-851.5 661.34,-848 651.34,-844.5 651.34,-851.5"/>
</a>
</g>
</g>
<!-- Node5&#45;&gt;Node7 -->
<g id="edge6_Node000005_Node000007" class="edge">
<title>Node5&#45;&gt;Node7</title>
<g id="a_edge6_Node000005_Node000007"><a xlink:title=" ">
<path fill="none" stroke="#63b8ff" d="M589.32,-857.53C598.54,-860.71 608.75,-864.37 618,-868 635.84,-874.99 655.25,-883.34 671.92,-890.75"/>
<polygon fill="#63b8ff" stroke="#63b8ff" points="670.83,-894.09 681.38,-894.98 673.69,-887.7 670.83,-894.09"/>
</a>
</g>
</g>
<!-- Node8 -->
<g id="Node000008" class="node">
<title>Node8</title>
<g id="a_Node000008"><a xlink:href="namespacedetail.html#a1fe84ebaf96215ce0665d95b3124c2df" target="_top" xlink:title=" ">
<polygon fill="white" stroke="#666666" points="934,-919.5 812,-919.5 812,-900.5 934,-900.5 934,-919.5"/>
<text text-anchor="middle" x="873" y="-907.5" font-family="Helvetica,sans-Serif" font-size="10.00">detail::ignore_unused</text>
</a>
</g>
</g>
<!-- Node7&#45;&gt;Node8 -->
<g id="edge7_Node000007_Node000008" class="edge">
<title>Node7&#45;&gt;Node8</title>
<g id="a_edge7_Node000007_Node000008"><a xlink:title=" ">
<path fill="none" stroke="#63b8ff" d="M768.38,-910C779.09,-910 790.52,-910 801.74,-910"/>
<polygon fill="#63b8ff" stroke="#63b8ff" points="801.95,-913.5 811.95,-910 801.95,-906.5 801.95,-913.5"/>
</a>
</g>
</g>
<!-- Node10 -->
<g id="Node000010" class="node">
<title>Node10</title>
<g id="a_Node000010"><a xlink:href="namespacedetail.html#adecb5dbdc5faeb0d252ab0f4cb92c8a9" target="_top" xlink:title=" ">
<polygon fill="white" stroke="#666666" points="598,-507.5 521,-507.5 521,-488.5 598,-488.5 598,-507.5"/>
<text text-anchor="middle" x="559.5" y="-495.5" font-family="Helvetica,sans-Serif" font-size="10.00">detail::count</text>
</a>
</g>
</g>
<!-- Node9&#45;&gt;Node10 -->
<g id="edge9_Node000009_Node000010" class="edge">
<title>Node9&#45;&gt;Node10</title>
<g id="a_edge9_Node000009_Node000010"><a xlink:title=" ">
<path fill="none" stroke="#63b8ff" d="M433.63,-481.71C456.35,-484.68 485.91,-488.53 510.58,-491.75"/>
<polygon fill="#63b8ff" stroke="#63b8ff" points="510.44,-495.26 520.81,-493.08 511.35,-488.32 510.44,-495.26"/>
</a>
</g>
</g>
<!-- Node10&#45;&gt;Node10 -->
<g id="edge10_Node000010_Node000010" class="edge">
<title>Node10&#45;&gt;Node10</title>
<g id="a_edge10_Node000010_Node000010"><a xlink:title=" ">
<path fill="none" stroke="#63b8ff" d="M535.76,-507.58C524.22,-516.23 532.13,-525.5 559.5,-525.5 577.46,-525.5 587.04,-521.51 588.25,-516.32"/>
<polygon fill="#63b8ff" stroke="#63b8ff" points="591.25,-514.52 583.24,-507.58 585.17,-518 591.25,-514.52"/>
</a>
</g>
</g>
<!-- Node13&#45;&gt;Node2 -->
<g id="edge14_Node000013_Node000002" class="edge">
<title>Node13&#45;&gt;Node2</title>
<g id="a_edge14_Node000013_Node000002"><a xlink:title=" ">
<path fill="none" stroke="#63b8ff" d="M228.91,-663.74C242.78,-679.03 270.21,-709.73 292,-737 308.87,-758.11 306.31,-769.87 328,-786 333.63,-790.19 340.06,-793.7 346.66,-796.62"/>
<polygon fill="#63b8ff" stroke="#63b8ff" points="345.8,-800.04 356.39,-800.5 348.39,-793.54 345.8,-800.04"/>
</a>
</g>
</g>
<!-- Node14 -->
<g id="Node000014" class="node">
<title>Node14</title>
<g id="a_Node000014"><a xlink:href="classdetail_1_1bigint.html#a8351139b55eb772c8f1c9f86e8e66e8f" target="_top" xlink:title=" ">
<polygon fill="white" stroke="#666666" points="454.5,-669 338.5,-669 338.5,-639 454.5,-639 454.5,-669"/>
<text text-anchor="start" x="346.5" y="-657" font-family="Helvetica,sans-Serif" font-size="10.00">detail::bigint::assign</text>
<text text-anchor="middle" x="396.5" y="-646" font-family="Helvetica,sans-Serif" font-size="10.00">_pow10</text>
</a>
</g>
</g>
<!-- Node13&#45;&gt;Node14 -->
<g id="edge15_Node000013_Node000014" class="edge">
<title>Node13&#45;&gt;Node14</title>
<g id="a_edge15_Node000013_Node000014"><a xlink:title=" ">
<path fill="none" stroke="#63b8ff" d="M280.4,-654C295.77,-654 312.39,-654 328.08,-654"/>
<polygon fill="#63b8ff" stroke="#63b8ff" points="328.25,-657.5 338.25,-654 328.25,-650.5 328.25,-657.5"/>
</a>
</g>
</g>
<!-- Node13&#45;&gt;Node19 -->
<g id="edge28_Node000013_Node000019" class="edge">
<title>Node13&#45;&gt;Node19</title>
<g id="a_edge28_Node000013_Node000019"><a xlink:title=" ">
<path fill="none" stroke="#63b8ff" d="M257.78,-644.48C278.42,-639.57 304.49,-633.82 328,-630 440.49,-611.73 572.85,-600.14 649.71,-594.38"/>
<polygon fill="#63b8ff" stroke="#63b8ff" points="650.01,-597.87 659.72,-593.64 649.49,-590.89 650.01,-597.87"/>
</a>
</g>
</g>
<!-- Node20 -->
<g id="Node000020" class="node">
<title>Node20</title>
<g id="a_Node000020"><a xlink:href="namespacedetail.html#a0ceb10ccba97bb9ee464ff31e6349511" target="_top" xlink:title=" ">
<polygon fill="white" stroke="#666666" points="606,-895.5 513,-895.5 513,-876.5 606,-876.5 606,-895.5"/>
<text text-anchor="middle" x="559.5" y="-883.5" font-family="Helvetica,sans-Serif" font-size="10.00">detail::compare</text>
</a>
</g>
</g>
<!-- Node13&#45;&gt;Node20 -->
<g id="edge23_Node000013_Node000020" class="edge">
<title>Node13&#45;&gt;Node20</title>
<g id="a_edge23_Node000013_Node000020"><a xlink:title=" ">
<path fill="none" stroke="#63b8ff" d="M227.85,-663.76C244.29,-683.57 284.48,-728.68 328,-753 383.26,-783.89 416.59,-751.2 465,-792 493.27,-815.83 473.23,-842.59 501,-867 502.93,-868.7 505.03,-870.25 507.22,-871.66"/>
<polygon fill="#63b8ff" stroke="#63b8ff" points="505.68,-874.8 516.15,-876.45 508.99,-868.64 505.68,-874.8"/>
</a>
</g>
</g>
<!-- Node21 -->
<g id="Node000021" class="node">
<title>Node21</title>
<g id="a_Node000021"><a xlink:href="classdetail_1_1buffer.html#aeb33e0a2d2be2bbca9e0236c148089c8" target="_top" xlink:title="Returns a pointer to the buffer data (not null&#45;terminated).">
<polygon fill="white" stroke="#666666" points="450,-706.5 343,-706.5 343,-687.5 450,-687.5 450,-706.5"/>
<text text-anchor="middle" x="396.5" y="-694.5" font-family="Helvetica,sans-Serif" font-size="10.00">detail::buffer::data</text>
</a>
</g>
</g>
<!-- Node13&#45;&gt;Node21 -->
<g id="edge25_Node000013_Node000021" class="edge">
<title>Node13&#45;&gt;Node21</title>
<g id="a_edge25_Node000013_Node000021"><a xlink:title=" ">
<path fill="none" stroke="#63b8ff" d="M258.95,-663.54C284.85,-669.89 319.07,-678.27 346.78,-685.06"/>
<polygon fill="#63b8ff" stroke="#63b8ff" points="346.11,-688.5 356.66,-687.48 347.78,-681.7 346.11,-688.5"/>
</a>
</g>
</g>
<!-- Node22 -->
<g id="Node000022" class="node">
<title>Node22</title>
<g id="a_Node000022"><a xlink:href="classdetail_1_1bigint.html#afb6b3fc8ea4dfc1c18792e7228190c67" target="_top" xlink:title=" ">
<polygon fill="white" stroke="#666666" points="457,-583 336,-583 336,-553 457,-553 457,-583"/>
<text text-anchor="start" x="344" y="-571" font-family="Helvetica,sans-Serif" font-size="10.00">detail::bigint::divmod</text>
<text text-anchor="middle" x="396.5" y="-560" font-family="Helvetica,sans-Serif" font-size="10.00">_assign</text>
</a>
</g>
</g>
<!-- Node13&#45;&gt;Node22 -->
<g id="edge26_Node000013_Node000022" class="edge">
<title>Node13&#45;&gt;Node22</title>
<g id="a_edge26_Node000013_Node000022"><a xlink:title=" ">
<path fill="none" stroke="#63b8ff" d="M236.99,-644.49C258.09,-632.81 295.29,-612.63 328,-597 334.8,-593.75 342.07,-590.45 349.21,-587.31"/>
<polygon fill="#63b8ff" stroke="#63b8ff" points="351.05,-590.32 358.83,-583.12 348.26,-583.9 351.05,-590.32"/>
</a>
</g>
</g>
<!-- Node23 -->
<g id="Node000023" class="node">
<title>Node23</title>
<g id="a_Node000023"><a xlink:href="classdetail_1_1buffer.html#a49016d0c600f79917e00d9e3458c8c92" target="_top" xlink:title=" ">
<polygon fill="white" stroke="#666666" points="465,-743.5 328,-743.5 328,-724.5 465,-724.5 465,-743.5"/>
<text text-anchor="middle" x="396.5" y="-731.5" font-family="Helvetica,sans-Serif" font-size="10.00">detail::buffer::push_back</text>
</a>
</g>
</g>
<!-- Node13&#45;&gt;Node23 -->
<g id="edge27_Node000013_Node000023" class="edge">
<title>Node13&#45;&gt;Node23</title>
<g id="a_edge27_Node000013_Node000023"><a xlink:title=" ">
<path fill="none" stroke="#63b8ff" d="M234.06,-663.68C254.1,-677.09 292.42,-701.34 328,-716 332.78,-717.97 337.85,-719.79 342.96,-721.44"/>
<polygon fill="#63b8ff" stroke="#63b8ff" points="342.23,-724.87 352.81,-724.42 344.26,-718.17 342.23,-724.87"/>
</a>
</g>
</g>
<!-- Node24 -->
<g id="Node000024" class="node">
<title>Node24</title>
<g id="a_Node000024"><a xlink:href="classdetail_1_1buffer.html#ac48c33ebe198a142029794f99ec73c31" target="_top" xlink:title=" ">
<polygon fill="white" stroke="#666666" points="445.5,-535 347.5,-535 347.5,-505 445.5,-505 445.5,-535"/>
<text text-anchor="start" x="355.5" y="-523" font-family="Helvetica,sans-Serif" font-size="10.00">detail::buffer::try</text>
<text text-anchor="middle" x="396.5" y="-512" font-family="Helvetica,sans-Serif" font-size="10.00">_resize</text>
</a>
</g>
</g>
<!-- Node13&#45;&gt;Node24 -->
<g id="edge29_Node000013_Node000024" class="edge">
<title>Node13&#45;&gt;Node24</title>
<g id="a_edge29_Node000013_Node000024"><a xlink:title=" ">
<path fill="none" stroke="#63b8ff" d="M227,-644.33C242.75,-623.23 283.11,-572.65 328,-544 331.17,-541.97 334.54,-540.09 338.01,-538.35"/>
<polygon fill="#63b8ff" stroke="#63b8ff" points="339.75,-541.4 347.38,-534.05 336.83,-535.04 339.75,-541.4"/>
</a>
</g>
</g>
<!-- Node14&#45;&gt;Node5 -->
<g id="edge16_Node000014_Node000005" class="edge">
<title>Node14&#45;&gt;Node5</title>
<g id="a_edge16_Node000014_Node000005"><a xlink:title=" ">
<path fill="none" stroke="#63b8ff" d="M450.1,-669.13C455.45,-671.91 460.55,-675.17 465,-679 513.41,-720.62 541.53,-793.81 552.76,-828.59"/>
<polygon fill="#63b8ff" stroke="#63b8ff" points="549.52,-829.93 555.82,-838.45 556.2,-827.86 549.52,-829.93"/>
</a>
</g>
</g>
<!-- Node15 -->
<g id="Node000015" class="node">
<title>Node15</title>
<g id="a_Node000015"><a xlink:href="classdetail_1_1bigint.html#a15833eda9c0cc326a77b0a37ac208a20" target="_top" xlink:title=" ">
<polygon fill="white" stroke="#666666" points="618,-663.5 501,-663.5 501,-644.5 618,-644.5 618,-663.5"/>
<text text-anchor="middle" x="559.5" y="-651.5" font-family="Helvetica,sans-Serif" font-size="10.00">detail::bigint::square</text>
</a>
</g>
</g>
<!-- Node14&#45;&gt;Node15 -->
<g id="edge17_Node000014_Node000015" class="edge">
<title>Node14&#45;&gt;Node15</title>
<g id="a_edge17_Node000014_Node000015"><a xlink:title=" ">
<path fill="none" stroke="#63b8ff" d="M454.72,-654C466.44,-654 478.88,-654 490.93,-654"/>
<polygon fill="#63b8ff" stroke="#63b8ff" points="490.93,-657.5 500.93,-654 490.93,-650.5 490.93,-657.5"/>
</a>
</g>
</g>
<!-- Node16 -->
<g id="Node000016" class="node">
<title>Node16</title>
<g id="a_Node000016"><a xlink:href="classdetail_1_1bigint.html#ad23c661d46b255d93b1f4e7e4ce09f53" target="_top" xlink:title=" ">
<polygon fill="white" stroke="#666666" points="768,-648 662,-648 662,-618 768,-618 768,-648"/>
<text text-anchor="start" x="670" y="-636" font-family="Helvetica,sans-Serif" font-size="10.00">detail::bigint::num</text>
<text text-anchor="middle" x="715" y="-625" font-family="Helvetica,sans-Serif" font-size="10.00">_bigits</text>
</a>
</g>
</g>
<!-- Node15&#45;&gt;Node16 -->
<g id="edge18_Node000015_Node000016" class="edge">
<title>Node15&#45;&gt;Node16</title>
<g id="a_edge18_Node000015_Node000016"><a xlink:title=" ">
<path fill="none" stroke="#63b8ff" d="M618.09,-646.12C629.04,-644.62 640.53,-643.05 651.62,-641.53"/>
<polygon fill="#63b8ff" stroke="#63b8ff" points="652.22,-644.99 661.65,-640.16 651.27,-638.05 652.22,-644.99"/>
</a>
</g>
</g>
<!-- Node17 -->
<g id="Node000017" class="node">
<title>Node17</title>
<g id="a_Node000017"><a xlink:href="classdetail_1_1buffer.html#a8685285932360c284d19003fc4ba3edc" target="_top" xlink:title="Returns the size of this buffer.">
<polygon fill="white" stroke="#666666" points="925,-664.5 821,-664.5 821,-645.5 925,-645.5 925,-664.5"/>
<text text-anchor="middle" x="873" y="-652.5" font-family="Helvetica,sans-Serif" font-size="10.00">detail::buffer::size</text>
</a>
</g>
</g>
<!-- Node15&#45;&gt;Node17 -->
<g id="edge21_Node000015_Node000017" class="edge">
<title>Node15&#45;&gt;Node17</title>
<g id="a_edge21_Node000015_Node000017"><a xlink:title=" ">
<path fill="none" stroke="#63b8ff" d="M618.35,-656.15C630.14,-656.5 642.47,-656.82 654,-657 708.22,-657.87 721.78,-657.56 776,-657 787.1,-656.88 798.93,-656.69 810.35,-656.47"/>
<polygon fill="#63b8ff" stroke="#63b8ff" points="810.76,-659.97 820.69,-656.27 810.62,-652.97 810.76,-659.97"/>
</a>
</g>
</g>
<!-- Node18 -->
<g id="Node000018" class="node">
<title>Node18</title>
<g id="a_Node000018"><a xlink:href="classbasic__memory__buffer.html#a9a5d3f229ccaf48e4176d7cdcfd84383" target="_top" xlink:title=" ">
<polygon fill="white" stroke="#666666" points="776,-734 654,-734 654,-704 776,-704 776,-734"/>
<text text-anchor="start" x="662" y="-722" font-family="Helvetica,sans-Serif" font-size="10.00">basic_memory_buffer</text>
<text text-anchor="middle" x="715" y="-711" font-family="Helvetica,sans-Serif" font-size="10.00">::resize</text>
</a>
</g>
</g>
<!-- Node15&#45;&gt;Node18 -->
<g id="edge20_Node000015_Node000018" class="edge">
<title>Node15&#45;&gt;Node18</title>
<g id="a_edge20_Node000015_Node000018"><a xlink:title=" ">
<path fill="none" stroke="#63b8ff" d="M583.15,-663.59C605.7,-673.14 640.94,-688.06 669.16,-700.01"/>
<polygon fill="#63b8ff" stroke="#63b8ff" points="667.86,-703.26 678.44,-703.94 670.59,-696.82 667.86,-703.26"/>
</a>
</g>
</g>
<!-- Node15&#45;&gt;Node19 -->
<g id="edge22_Node000015_Node000019" class="edge">
<title>Node15&#45;&gt;Node19</title>
<g id="a_edge22_Node000015_Node000019"><a xlink:title=" ">
<path fill="none" stroke="#63b8ff" d="M579.44,-644.49C602.34,-633.06 639.6,-614.71 654,-609 659.53,-606.81 665.42,-604.69 671.27,-602.71"/>
<polygon fill="#63b8ff" stroke="#63b8ff" points="672.59,-605.96 681.01,-599.52 670.41,-599.31 672.59,-605.96"/>
</a>
</g>
</g>
<!-- Node16&#45;&gt;Node17 -->
<g id="edge19_Node000016_Node000017" class="edge">
<title>Node16&#45;&gt;Node17</title>
<g id="a_edge19_Node000016_Node000017"><a xlink:title=" ">
<path fill="none" stroke="#63b8ff" d="M768.38,-640.39C781.98,-642.31 796.76,-644.39 810.77,-646.37"/>
<polygon fill="#63b8ff" stroke="#63b8ff" points="810.43,-649.85 820.82,-647.78 811.4,-642.92 810.43,-649.85"/>
</a>
</g>
</g>
<!-- Node20&#45;&gt;Node7 -->
<g id="edge24_Node000020_Node000007" class="edge">
<title>Node20&#45;&gt;Node7</title>
<g id="a_edge24_Node000020_Node000007"><a xlink:title=" ">
<path fill="none" stroke="#63b8ff" d="M606.14,-893.14C620.49,-895.38 636.59,-897.9 651.89,-900.29"/>
<polygon fill="#63b8ff" stroke="#63b8ff" points="651.38,-903.75 661.8,-901.84 652.46,-896.84 651.38,-903.75"/>
</a>
</g>
</g>
<!-- Node24&#45;&gt;Node10 -->
<g id="edge30_Node000024_Node000010" class="edge">
<title>Node24&#45;&gt;Node10</title>
<g id="a_edge30_Node000024_Node000010"><a xlink:title=" ">
<path fill="none" stroke="#63b8ff" d="M445.81,-513.4C466.41,-510.58 490.38,-507.31 510.9,-504.5"/>
<polygon fill="#63b8ff" stroke="#63b8ff" points="511.54,-507.95 520.97,-503.13 510.59,-501.01 511.54,-507.95"/>
</a>
</g>
</g>
<!-- Node24&#45;&gt;Node25 -->
<g id="edge31_Node000024_Node000025" class="edge">
<title>Node24&#45;&gt;Node25</title>
<g id="a_edge31_Node000024_Node000025"><a xlink:title=" ">
<path fill="none" stroke="#63b8ff" d="M441.26,-504.99C449.2,-502.11 457.38,-499.04 465,-496 481.26,-489.51 484.67,-486.31 501,-480 508.59,-477.07 516.84,-474.18 524.66,-471.56"/>
<polygon fill="#63b8ff" stroke="#63b8ff" points="525.84,-474.86 534.25,-468.42 523.66,-468.21 525.84,-474.86"/>
</a>
</g>
</g>
<!-- Node30 -->
<g id="Node000030" class="node">
<title>Node30</title>
<g id="a_Node000030"><a xlink:href="namespacedetail.html#a79d19c16611e9ed84eb710d8380f9199" target="_top" xlink:title=" ">
<polygon fill="white" stroke="#666666" points="606,-46.5 513,-46.5 513,-27.5 606,-27.5 606,-46.5"/>
<text text-anchor="middle" x="559.5" y="-34.5" font-family="Helvetica,sans-Serif" font-size="10.00">detail::umul128</text>
</a>
</g>
</g>
<!-- Node29&#45;&gt;Node30 -->
<g id="edge39_Node000029_Node000030" class="edge">
<title>Node29&#45;&gt;Node30</title>
<g id="a_edge39_Node000029_Node000030"><a xlink:title=" ">
<path fill="none" stroke="#63b8ff" d="M450.66,-51.07C467.35,-48.89 485.82,-46.48 502.68,-44.28"/>
<polygon fill="#63b8ff" stroke="#63b8ff" points="503.48,-47.71 512.95,-42.94 502.58,-40.76 503.48,-47.71"/>
</a>
</g>
</g>
<!-- Node31&#45;&gt;Node29 -->
<g id="edge42_Node000031_Node000029" class="edge">
<title>Node31&#45;&gt;Node29</title>
<g id="a_edge42_Node000031_Node000029"><a xlink:title=" ">
<path fill="none" stroke="#63b8ff" d="M274.09,-28.25C292.61,-32.79 313.5,-37.91 332.66,-42.6"/>
<polygon fill="#63b8ff" stroke="#63b8ff" points="331.95,-46.03 342.49,-45.01 333.61,-39.23 331.95,-46.03"/>
</a>
</g>
</g>
<!-- Node31&#45;&gt;Node30 -->
<g id="edge41_Node000031_Node000030" class="edge">
<title>Node31&#45;&gt;Node30</title>
<g id="a_edge41_Node000031_Node000030"><a xlink:title=" ">
<path fill="none" stroke="#63b8ff" d="M274.01,-18.51C336.6,-22.58 439.24,-29.25 502.62,-33.37"/>
<polygon fill="#63b8ff" stroke="#63b8ff" points="502.62,-36.88 512.82,-34.03 503.07,-29.89 502.62,-36.88"/>
</a>
</g>
</g>
<!-- Node32&#45;&gt;Node7 -->
<g id="edge45_Node000032_Node000007" class="edge">
<title>Node32&#45;&gt;Node7</title>
<g id="a_edge45_Node000032_Node000007"><a xlink:title=" ">
<path fill="none" stroke="#63b8ff" d="M264.71,-895.53C284.07,-899.23 307.06,-903.03 328,-905 441.6,-915.66 574.81,-914.35 651.32,-912.28"/>
<polygon fill="#63b8ff" stroke="#63b8ff" points="651.83,-915.77 661.73,-911.98 651.63,-908.77 651.83,-915.77"/>
</a>
</g>
</g>
<!-- Node33 -->
<g id="Node000033" class="node">
<title>Node33</title>
<g id="a_Node000033"><a xlink:href="namespacedetail.html#abcb0aad14fe5c9d85a83f3ad59fad077" target="_top" xlink:title=" ">
<polygon fill="white" stroke="#666666" points="438,-895.5 355,-895.5 355,-876.5 438,-876.5 438,-895.5"/>
<text text-anchor="middle" x="396.5" y="-883.5" font-family="Helvetica,sans-Serif" font-size="10.00">detail::digits2</text>
</a>
</g>
</g>
<!-- Node32&#45;&gt;Node33 -->
<g id="edge44_Node000032_Node000033" class="edge">
<title>Node32&#45;&gt;Node33</title>
<g id="a_edge44_Node000032_Node000033"><a xlink:title=" ">
<path fill="none" stroke="#63b8ff" d="M273.13,-886C295.88,-886 322.32,-886 344.79,-886"/>
<polygon fill="#63b8ff" stroke="#63b8ff" points="344.81,-889.5 354.81,-886 344.81,-882.5 344.81,-889.5"/>
</a>
</g>
</g>
</g>
</svg>
