<?xml version="1.0" encoding="UTF-8" standalone="no"?>
<!DOCTYPE svg PUBLIC "-//W3C//DTD SVG 1.1//EN"
 "http://www.w3.org/Graphics/SVG/1.1/DTD/svg11.dtd">
<!-- Generated by graphviz version 2.42.4 (0)
 -->
<!-- Title: formatter&lt; detail::styled_arg&lt; T &gt;, Char &gt;::format Pages: 1 -->
<svg width="505pt" height="263pt"
 viewBox="0.00 0.00 505.00 263.02" xmlns="http://www.w3.org/2000/svg" xmlns:xlink="http://www.w3.org/1999/xlink">
<g id="graph0" class="graph" transform="scale(1 1) rotate(0) translate(4 259.02)">
<title>formatter&lt; detail::styled_arg&lt; T &gt;, Char &gt;::format</title>
<!-- Node1 -->
<g id="Node000001" class="node">
<title>Node1</title>
<g id="a_Node000001"><a xlink:title=" ">
<polygon fill="#999999" stroke="#666666" points="125,-135.02 0,-135.02 0,-94.02 125,-94.02 125,-135.02"/>
<text text-anchor="start" x="8" y="-123.02" font-family="Helvetica,sans-Serif" font-size="10.00">formatter&lt; detail::</text>
<text text-anchor="start" x="8" y="-112.02" font-family="Helvetica,sans-Serif" font-size="10.00">styled_arg&lt; T &gt;, Char</text>
<text text-anchor="middle" x="62.5" y="-101.02" font-family="Helvetica,sans-Serif" font-size="10.00"> &gt;::format</text>
</a>
</g>
</g>
<!-- Node2 -->
<g id="Node000002" class="node">
<title>Node2</title>
<g id="a_Node000002"><a xlink:href="base_8h.html#aa6e4c2631b1a133286786130bf11a9cc" target="_top" xlink:title=" ">
<polygon fill="white" stroke="#666666" points="251.5,-237.02 219.5,-237.02 219.5,-218.02 251.5,-218.02 251.5,-237.02"/>
<text text-anchor="middle" x="235.5" y="-225.02" font-family="Helvetica,sans-Serif" font-size="10.00">arg</text>
</a>
</g>
</g>
<!-- Node1&#45;&gt;Node2 -->
<g id="edge1_Node000001_Node000002" class="edge">
<title>Node1&#45;&gt;Node2</title>
<g id="a_edge1_Node000001_Node000002"><a xlink:title=" ">
<path fill="none" stroke="#63b8ff" d="M79.09,-135.23C96.62,-157.03 127.1,-190.73 161,-209.52 175.89,-217.78 194.53,-222.29 209.31,-224.73"/>
<polygon fill="#63b8ff" stroke="#63b8ff" points="208.89,-228.2 219.29,-226.16 209.89,-221.28 208.89,-228.2"/>
</a>
</g>
</g>
<!-- Node3 -->
<g id="Node000003" class="node">
<title>Node3</title>
<g id="a_Node000003"><a xlink:href="classtext__style.html#af76917d3bb69bc710dd92da079222a5b" target="_top" xlink:title=" ">
<polygon fill="white" stroke="#666666" points="310,-200.02 161,-200.02 161,-181.02 310,-181.02 310,-200.02"/>
<text text-anchor="middle" x="235.5" y="-188.02" font-family="Helvetica,sans-Serif" font-size="10.00">text_style::get_background</text>
</a>
</g>
</g>
<!-- Node1&#45;&gt;Node3 -->
<g id="edge3_Node000001_Node000003" class="edge">
<title>Node1&#45;&gt;Node3</title>
<g id="a_edge3_Node000001_Node000003"><a xlink:title=" ">
<path fill="none" stroke="#63b8ff" d="M98.43,-135.06C116.7,-145.31 139.64,-157.43 161,-166.52 170.73,-170.67 181.44,-174.54 191.6,-177.91"/>
<polygon fill="#63b8ff" stroke="#63b8ff" points="190.53,-181.24 201.12,-180.98 192.67,-174.58 190.53,-181.24"/>
</a>
</g>
</g>
<!-- Node4 -->
<g id="Node000004" class="node">
<title>Node4</title>
<g id="a_Node000004"><a xlink:href="classtext__style.html#a37356f14e6337463dbe1fc03c90c57c6" target="_top" xlink:title=" ">
<polygon fill="white" stroke="#666666" points="497,-181.02 346,-181.02 346,-162.02 497,-162.02 497,-181.02"/>
<text text-anchor="middle" x="421.5" y="-169.02" font-family="Helvetica,sans-Serif" font-size="10.00">text_style::has_background</text>
</a>
</g>
</g>
<!-- Node1&#45;&gt;Node4 -->
<g id="edge9_Node000001_Node000004" class="edge">
<title>Node1&#45;&gt;Node4</title>
<g id="a_edge9_Node000001_Node000004"><a xlink:title=" ">
<path fill="none" stroke="#63b8ff" d="M125.05,-126.97C136.96,-129.25 149.35,-131.54 161,-133.52 220.54,-143.68 288.06,-153.51 339.29,-160.63"/>
<polygon fill="#63b8ff" stroke="#63b8ff" points="338.93,-164.12 349.32,-162.02 339.89,-157.18 338.93,-164.12"/>
</a>
</g>
</g>
<!-- Node5 -->
<g id="Node000005" class="node">
<title>Node5</title>
<g id="a_Node000005"><a xlink:href="classtext__style.html#a3e2d1c622ff4c3a1855ac09214a21506" target="_top" xlink:title=" ">
<polygon fill="white" stroke="#666666" points="305.5,-124.02 165.5,-124.02 165.5,-105.02 305.5,-105.02 305.5,-124.02"/>
<text text-anchor="middle" x="235.5" y="-112.02" font-family="Helvetica,sans-Serif" font-size="10.00">text_style::get_emphasis</text>
</a>
</g>
</g>
<!-- Node1&#45;&gt;Node5 -->
<g id="edge5_Node000001_Node000005" class="edge">
<title>Node1&#45;&gt;Node5</title>
<g id="a_edge5_Node000001_Node000005"><a xlink:title=" ">
<path fill="none" stroke="#63b8ff" d="M125.23,-114.52C134.99,-114.52 145.2,-114.52 155.29,-114.52"/>
<polygon fill="#63b8ff" stroke="#63b8ff" points="155.32,-118.02 165.32,-114.52 155.32,-111.02 155.32,-118.02"/>
</a>
</g>
</g>
<!-- Node6 -->
<g id="Node000006" class="node">
<title>Node6</title>
<g id="a_Node000006"><a xlink:href="classtext__style.html#abb81f43acce098a9bedef0113b84f20a" target="_top" xlink:title=" ">
<polygon fill="white" stroke="#666666" points="492,-105.02 351,-105.02 351,-86.02 492,-86.02 492,-105.02"/>
<text text-anchor="middle" x="421.5" y="-93.02" font-family="Helvetica,sans-Serif" font-size="10.00">text_style::has_emphasis</text>
</a>
</g>
</g>
<!-- Node1&#45;&gt;Node6 -->
<g id="edge10_Node000001_Node000006" class="edge">
<title>Node1&#45;&gt;Node6</title>
<g id="a_edge10_Node000001_Node000006"><a xlink:title=" ">
<path fill="none" stroke="#63b8ff" d="M125.16,-101.42C137,-99.39 149.35,-97.61 161,-96.52 221.14,-90.9 289.45,-90.89 340.89,-92.16"/>
<polygon fill="#63b8ff" stroke="#63b8ff" points="340.86,-95.66 350.95,-92.43 341.04,-88.67 340.86,-95.66"/>
</a>
</g>
</g>
<!-- Node7 -->
<g id="Node000007" class="node">
<title>Node7</title>
<g id="a_Node000007"><a xlink:href="classtext__style.html#aa60e11871525f3f612ce1f6ed5a30477" target="_top" xlink:title=" ">
<polygon fill="white" stroke="#666666" points="308.5,-48.02 162.5,-48.02 162.5,-29.02 308.5,-29.02 308.5,-48.02"/>
<text text-anchor="middle" x="235.5" y="-36.02" font-family="Helvetica,sans-Serif" font-size="10.00">text_style::get_foreground</text>
</a>
</g>
</g>
<!-- Node1&#45;&gt;Node7 -->
<g id="edge7_Node000001_Node000007" class="edge">
<title>Node1&#45;&gt;Node7</title>
<g id="a_edge7_Node000001_Node000007"><a xlink:title=" ">
<path fill="none" stroke="#63b8ff" d="M98.43,-93.98C116.7,-83.74 139.64,-71.62 161,-62.52 170.73,-58.38 181.44,-54.51 191.6,-51.14"/>
<polygon fill="#63b8ff" stroke="#63b8ff" points="192.67,-54.47 201.12,-48.07 190.53,-47.81 192.67,-54.47"/>
</a>
</g>
</g>
<!-- Node8 -->
<g id="Node000008" class="node">
<title>Node8</title>
<g id="a_Node000008"><a xlink:href="classtext__style.html#a8d91da8a0cb73c09af5f8fd521e39bce" target="_top" xlink:title=" ">
<polygon fill="white" stroke="#666666" points="495,-29.02 348,-29.02 348,-10.02 495,-10.02 495,-29.02"/>
<text text-anchor="middle" x="421.5" y="-17.02" font-family="Helvetica,sans-Serif" font-size="10.00">text_style::has_foreground</text>
</a>
</g>
</g>
<!-- Node1&#45;&gt;Node8 -->
<g id="edge11_Node000001_Node000008" class="edge">
<title>Node1&#45;&gt;Node8</title>
<g id="a_edge11_Node000001_Node000008"><a xlink:title=" ">
<path fill="none" stroke="#63b8ff" d="M77.1,-93.87C93.72,-70.72 124.22,-34.48 161,-19.52 228.24,7.82 313.63,0.74 367.69,-8.26"/>
<polygon fill="#63b8ff" stroke="#63b8ff" points="367.29,-11.74 377.74,-10.01 368.49,-4.84 367.29,-11.74"/>
</a>
</g>
</g>
<!-- Node2&#45;&gt;Node2 -->
<g id="edge2_Node000002_Node000002" class="edge">
<title>Node2&#45;&gt;Node2</title>
<g id="a_edge2_Node000002_Node000002"><a xlink:title=" ">
<path fill="none" stroke="#63b8ff" d="M219.19,-232.12C193.45,-241.73 198.88,-255.02 235.5,-255.02 266.68,-255.02 275.25,-245.38 261.21,-236.59"/>
<polygon fill="#63b8ff" stroke="#63b8ff" points="262.34,-233.25 251.81,-232.12 259.34,-239.57 262.34,-233.25"/>
</a>
</g>
</g>
<!-- Node3&#45;&gt;Node4 -->
<g id="edge4_Node000003_Node000004" class="edge">
<title>Node3&#45;&gt;Node4</title>
<g id="a_edge4_Node000003_Node000004"><a xlink:title=" ">
<path fill="none" stroke="#63b8ff" d="M310.01,-182.93C318.5,-182.06 327.21,-181.16 335.84,-180.27"/>
<polygon fill="#63b8ff" stroke="#63b8ff" points="336.31,-183.74 345.9,-179.23 335.59,-176.77 336.31,-183.74"/>
</a>
</g>
</g>
<!-- Node5&#45;&gt;Node6 -->
<g id="edge6_Node000005_Node000006" class="edge">
<title>Node5&#45;&gt;Node6</title>
<g id="a_edge6_Node000005_Node000006"><a xlink:title=" ">
<path fill="none" stroke="#63b8ff" d="M305.54,-107.4C316.97,-106.21 328.92,-104.98 340.59,-103.78"/>
<polygon fill="#63b8ff" stroke="#63b8ff" points="341.18,-107.23 350.77,-102.72 340.46,-100.27 341.18,-107.23"/>
</a>
</g>
</g>
<!-- Node7&#45;&gt;Node8 -->
<g id="edge8_Node000007_Node000008" class="edge">
<title>Node7&#45;&gt;Node8</title>
<g id="a_edge8_Node000007_Node000008"><a xlink:title=" ">
<path fill="none" stroke="#63b8ff" d="M308.69,-31.07C318.26,-30.08 328.12,-29.06 337.85,-28.06"/>
<polygon fill="#63b8ff" stroke="#63b8ff" points="338.32,-31.53 347.91,-27.02 337.6,-24.57 338.32,-31.53"/>
</a>
</g>
</g>
</g>
</svg>
