<?xml version="1.0" encoding="UTF-8" standalone="no"?>
<!DOCTYPE svg PUBLIC "-//W3C//DTD SVG 1.1//EN"
 "http://www.w3.org/Graphics/SVG/1.1/DTD/svg11.dtd">
<!-- Generated by graphviz version 2.42.4 (0)
 -->
<!-- Title: basic_specs::localized Pages: 1 -->
<svg width="299pt" height="135pt"
 viewBox="0.00 0.00 299.00 134.50" xmlns="http://www.w3.org/2000/svg" xmlns:xlink="http://www.w3.org/1999/xlink">
<g id="graph0" class="graph" transform="scale(1 1) rotate(0) translate(4 130.5)">
<title>basic_specs::localized</title>
<!-- Node1 -->
<g id="Node000001" class="node">
<title>Node1</title>
<g id="a_Node000001"><a xlink:title=" ">
<polygon fill="#999999" stroke="#666666" points="291,-78.5 166,-78.5 166,-59.5 291,-59.5 291,-78.5"/>
<text text-anchor="middle" x="228.5" y="-66.5" font-family="Helvetica,sans-Serif" font-size="10.00">basic_specs::localized</text>
</a>
</g>
</g>
<!-- Node2 -->
<g id="Node000002" class="node">
<title>Node2</title>
<g id="a_Node000002"><a xlink:href="namespacedetail.html#af15358b6464bf066f4d6e03cb61dc36b" target="_top" xlink:title=" ">
<polygon fill="white" stroke="#666666" points="124.5,-126.5 5.5,-126.5 5.5,-107.5 124.5,-107.5 124.5,-126.5"/>
<text text-anchor="middle" x="65" y="-114.5" font-family="Helvetica,sans-Serif" font-size="10.00">detail::do_write_float</text>
</a>
</g>
</g>
<!-- Node1&#45;&gt;Node2 -->
<g id="edge1_Node000001_Node000002" class="edge">
<title>Node1&#45;&gt;Node2</title>
<g id="a_edge1_Node000001_Node000002"><a xlink:title=" ">
<path fill="none" stroke="#63b8ff" d="M187.33,-81.6C169.76,-87.05 148.89,-93.44 130,-99 120.48,-101.8 110.13,-104.75 100.59,-107.44"/>
<polygon fill="#63b8ff" stroke="#63b8ff" points="188.74,-84.83 197.25,-78.51 186.67,-78.14 188.74,-84.83"/>
</a>
</g>
</g>
<!-- Node3 -->
<g id="Node000003" class="node">
<title>Node3</title>
<g id="a_Node000003"><a xlink:href="structformatter_3_01std_1_1chrono_1_1duration_3_01Rep_00_01Period_01_4_00_01Char_01_4.html#a4a5f18da796aba79bd0604170d0d3b4e" target="_top" xlink:title=" ">
<polygon fill="white" stroke="#666666" points="130,-89.5 0,-89.5 0,-48.5 130,-48.5 130,-89.5"/>
<text text-anchor="start" x="8" y="-77.5" font-family="Helvetica,sans-Serif" font-size="10.00">formatter&lt; std::chrono</text>
<text text-anchor="start" x="8" y="-66.5" font-family="Helvetica,sans-Serif" font-size="10.00">::duration&lt; Rep, Period</text>
<text text-anchor="middle" x="65" y="-55.5" font-family="Helvetica,sans-Serif" font-size="10.00"> &gt;, Char &gt;::format</text>
</a>
</g>
</g>
<!-- Node1&#45;&gt;Node3 -->
<g id="edge2_Node000001_Node000003" class="edge">
<title>Node1&#45;&gt;Node3</title>
<g id="a_edge2_Node000001_Node000003"><a xlink:title=" ">
<path fill="none" stroke="#63b8ff" d="M155.94,-69C147.31,-69 138.54,-69 130.03,-69"/>
<polygon fill="#63b8ff" stroke="#63b8ff" points="155.98,-72.5 165.98,-69 155.98,-65.5 155.98,-72.5"/>
</a>
</g>
</g>
<!-- Node4 -->
<g id="Node000004" class="node">
<title>Node4</title>
<g id="a_Node000004"><a xlink:href="structformatter_3_01std_1_1tm_00_01Char_01_4.html#ae4e544aec13d03dba536b39cfd559b54" target="_top" xlink:title=" ">
<polygon fill="white" stroke="#666666" points="121,-30 9,-30 9,0 121,0 121,-30"/>
<text text-anchor="start" x="17" y="-18" font-family="Helvetica,sans-Serif" font-size="10.00">formatter&lt; std::tm,</text>
<text text-anchor="middle" x="65" y="-7" font-family="Helvetica,sans-Serif" font-size="10.00"> Char &gt;::localized</text>
</a>
</g>
</g>
<!-- Node1&#45;&gt;Node4 -->
<g id="edge3_Node000001_Node000004" class="edge">
<title>Node1&#45;&gt;Node4</title>
<g id="a_edge3_Node000001_Node000004"><a xlink:title=" ">
<path fill="none" stroke="#63b8ff" d="M189.38,-56.25C165.88,-48.4 135.64,-38.29 110.98,-30.04"/>
<polygon fill="#63b8ff" stroke="#63b8ff" points="188.4,-59.62 199,-59.47 190.62,-52.98 188.4,-59.62"/>
</a>
</g>
</g>
</g>
</svg>
