<?xml version="1.0" encoding="UTF-8" standalone="no"?>
<!DOCTYPE svg PUBLIC "-//W3C//DTD SVG 1.1//EN"
 "http://www.w3.org/Graphics/SVG/1.1/DTD/svg11.dtd">
<!-- Generated by graphviz version 2.42.4 (0)
 -->
<!-- Title: detail::buffer::append Pages: 1 -->
<svg width="293pt" height="113pt"
 viewBox="0.00 0.00 293.00 112.50" xmlns="http://www.w3.org/2000/svg" xmlns:xlink="http://www.w3.org/1999/xlink">
<g id="graph0" class="graph" transform="scale(1 1) rotate(0) translate(4 108.5)">
<title>detail::buffer::append</title>
<!-- Node1 -->
<g id="Node000001" class="node">
<title>Node1</title>
<g id="a_Node000001"><a xlink:title="Appends data to the end of the buffer.">
<polygon fill="#999999" stroke="#666666" points="285,-67.5 164,-67.5 164,-48.5 285,-48.5 285,-67.5"/>
<text text-anchor="middle" x="224.5" y="-55.5" font-family="Helvetica,sans-Serif" font-size="10.00">detail::buffer::append</text>
</a>
</g>
</g>
<!-- Node2 -->
<g id="Node000002" class="node">
<title>Node2</title>
<g id="a_Node000002"><a xlink:href="classdetail_1_1to__utf8.html#a6171f2fd39d0df3575ee3d8247ccc99f" target="_top" xlink:title=" ">
<polygon fill="white" stroke="#666666" points="128,-104.5 0,-104.5 0,-85.5 128,-85.5 128,-104.5"/>
<text text-anchor="middle" x="64" y="-92.5" font-family="Helvetica,sans-Serif" font-size="10.00">detail::to_utf8::convert</text>
</a>
</g>
</g>
<!-- Node1&#45;&gt;Node2 -->
<g id="edge1_Node000001_Node000002" class="edge">
<title>Node1&#45;&gt;Node2</title>
<g id="a_edge1_Node000001_Node000002"><a xlink:title=" ">
<path fill="none" stroke="#63b8ff" d="M172.71,-69.86C151.14,-74.89 126.32,-80.68 105.95,-85.44"/>
<polygon fill="#63b8ff" stroke="#63b8ff" points="173.74,-73.21 182.68,-67.53 172.15,-66.39 173.74,-73.21"/>
</a>
</g>
</g>
<!-- Node3 -->
<g id="Node000003" class="node">
<title>Node3</title>
<g id="a_Node000003"><a xlink:href="namespacedetail.html#a718888554bf1561a88969b304e570395" target="_top" xlink:title=" ">
<polygon fill="white" stroke="#666666" points="128,-67.5 0,-67.5 0,-48.5 128,-48.5 128,-67.5"/>
<text text-anchor="middle" x="64" y="-55.5" font-family="Helvetica,sans-Serif" font-size="10.00">detail::format_hexfloat</text>
</a>
</g>
</g>
<!-- Node1&#45;&gt;Node3 -->
<g id="edge2_Node000001_Node000003" class="edge">
<title>Node1&#45;&gt;Node3</title>
<g id="a_edge2_Node000001_Node000003"><a xlink:title=" ">
<path fill="none" stroke="#63b8ff" d="M153.42,-58C145.02,-58 136.48,-58 128.18,-58"/>
<polygon fill="#63b8ff" stroke="#63b8ff" points="153.58,-61.5 163.58,-58 153.58,-54.5 153.58,-61.5"/>
</a>
</g>
</g>
<!-- Node4 -->
<g id="Node000004" class="node">
<title>Node4</title>
<g id="a_Node000004"><a xlink:href="classdetail_1_1formatbuf.html#ae758a58c68c6a9f7986b68fb6965d812" target="_top" xlink:title=" ">
<polygon fill="white" stroke="#666666" points="116,-30 12,-30 12,0 116,0 116,-30"/>
<text text-anchor="start" x="20" y="-18" font-family="Helvetica,sans-Serif" font-size="10.00">detail::formatbuf::</text>
<text text-anchor="middle" x="64" y="-7" font-family="Helvetica,sans-Serif" font-size="10.00">xsputn</text>
</a>
</g>
</g>
<!-- Node1&#45;&gt;Node4 -->
<g id="edge3_Node000001_Node000004" class="edge">
<title>Node1&#45;&gt;Node4</title>
<g id="a_edge3_Node000001_Node000004"><a xlink:title=" ">
<path fill="none" stroke="#63b8ff" d="M178.48,-45.79C159.01,-40.5 136.12,-34.29 116.02,-28.84"/>
<polygon fill="#63b8ff" stroke="#63b8ff" points="177.76,-49.22 188.32,-48.46 179.59,-42.46 177.76,-49.22"/>
</a>
</g>
</g>
</g>
</svg>
