<?xml version="1.0" encoding="UTF-8" standalone="no"?>
<!DOCTYPE svg PUBLIC "-//W3C//DTD SVG 1.1//EN"
 "http://www.w3.org/Graphics/SVG/1.1/DTD/svg11.dtd">
<!-- Generated by graphviz version 2.42.4 (0)
 -->
<!-- Title: detail::tm_writer::on_loc_date Pages: 1 -->
<svg width="551pt" height="76pt"
 viewBox="0.00 0.00 551.00 75.50" xmlns="http://www.w3.org/2000/svg" xmlns:xlink="http://www.w3.org/1999/xlink">
<g id="graph0" class="graph" transform="scale(1 1) rotate(0) translate(4 71.5)">
<title>detail::tm_writer::on_loc_date</title>
<!-- Node1 -->
<g id="Node000001" class="node">
<title>Node1</title>
<g id="a_Node000001"><a xlink:title=" ">
<polygon fill="#999999" stroke="#666666" points="104,-51 0,-51 0,-21 104,-21 104,-51"/>
<text text-anchor="start" x="8" y="-39" font-family="Helvetica,sans-Serif" font-size="10.00">detail::tm_writer::</text>
<text text-anchor="middle" x="52" y="-28" font-family="Helvetica,sans-Serif" font-size="10.00">on_loc_date</text>
</a>
</g>
</g>
<!-- Node2 -->
<g id="Node000002" class="node">
<title>Node2</title>
<g id="a_Node000002"><a xlink:href="classdetail_1_1tm__writer.html#a472013df4de61a40940d291bb092b051" target="_top" xlink:title=" ">
<polygon fill="white" stroke="#666666" points="244,-51 140,-51 140,-21 244,-21 244,-51"/>
<text text-anchor="start" x="148" y="-39" font-family="Helvetica,sans-Serif" font-size="10.00">detail::tm_writer::</text>
<text text-anchor="middle" x="192" y="-28" font-family="Helvetica,sans-Serif" font-size="10.00">on_us_date</text>
</a>
</g>
</g>
<!-- Node1&#45;&gt;Node2 -->
<g id="edge1_Node000001_Node000002" class="edge">
<title>Node1&#45;&gt;Node2</title>
<g id="a_edge1_Node000001_Node000002"><a xlink:title=" ">
<path fill="none" stroke="#63b8ff" d="M104.39,-36C112.56,-36 121.08,-36 129.46,-36"/>
<polygon fill="#63b8ff" stroke="#63b8ff" points="129.57,-39.5 139.57,-36 129.57,-32.5 129.57,-39.5"/>
</a>
</g>
</g>
<!-- Node3 -->
<g id="Node000003" class="node">
<title>Node3</title>
<g id="a_Node000003"><a xlink:href="namespacedetail.html#a4855e668246c731a97484efc329f2aac" target="_top" xlink:title=" ">
<polygon fill="white" stroke="#666666" points="390,-67.5 280,-67.5 280,-48.5 390,-48.5 390,-67.5"/>
<text text-anchor="middle" x="335" y="-55.5" font-family="Helvetica,sans-Serif" font-size="10.00">detail::to_unsigned</text>
</a>
</g>
</g>
<!-- Node2&#45;&gt;Node3 -->
<g id="edge2_Node000002_Node000003" class="edge">
<title>Node2&#45;&gt;Node3</title>
<g id="a_edge2_Node000002_Node000003"><a xlink:title=" ">
<path fill="none" stroke="#63b8ff" d="M244.3,-44C252.57,-45.29 261.21,-46.64 269.73,-47.97"/>
<polygon fill="#63b8ff" stroke="#63b8ff" points="269.23,-51.44 279.65,-49.52 270.31,-44.52 269.23,-51.44"/>
</a>
</g>
</g>
<!-- Node4 -->
<g id="Node000004" class="node">
<title>Node4</title>
<g id="a_Node000004"><a xlink:href="namespacedetail.html#a8917ae08a68c3c04ebd3338a11387e62" target="_top" xlink:title=" ">
<polygon fill="white" stroke="#666666" points="389,-30 281,-30 281,0 389,0 389,-30"/>
<text text-anchor="start" x="289" y="-18" font-family="Helvetica,sans-Serif" font-size="10.00">detail::write_digit2</text>
<text text-anchor="middle" x="335" y="-7" font-family="Helvetica,sans-Serif" font-size="10.00">_separated</text>
</a>
</g>
</g>
<!-- Node2&#45;&gt;Node4 -->
<g id="edge3_Node000002_Node000004" class="edge">
<title>Node2&#45;&gt;Node4</title>
<g id="a_edge3_Node000002_Node000004"><a xlink:title=" ">
<path fill="none" stroke="#63b8ff" d="M244.3,-28.36C252.79,-27.09 261.68,-25.77 270.43,-24.47"/>
<polygon fill="#63b8ff" stroke="#63b8ff" points="271.23,-27.89 280.6,-22.95 270.19,-20.96 271.23,-27.89"/>
</a>
</g>
</g>
<!-- Node5 -->
<g id="Node000005" class="node">
<title>Node5</title>
<g id="a_Node000005"><a xlink:href="namespacedetail.html#a2c4ec0b2d8e6d25554344b110648db37" target="_top" xlink:title=" ">
<polygon fill="white" stroke="#666666" points="543,-24.5 426,-24.5 426,-5.5 543,-5.5 543,-24.5"/>
<text text-anchor="middle" x="484.5" y="-12.5" font-family="Helvetica,sans-Serif" font-size="10.00">detail::is_big_endian</text>
</a>
</g>
</g>
<!-- Node4&#45;&gt;Node5 -->
<g id="edge4_Node000004_Node000005" class="edge">
<title>Node4&#45;&gt;Node5</title>
<g id="a_edge4_Node000004_Node000005"><a xlink:title=" ">
<path fill="none" stroke="#63b8ff" d="M389.25,-15C397.79,-15 406.73,-15 415.56,-15"/>
<polygon fill="#63b8ff" stroke="#63b8ff" points="415.84,-18.5 425.84,-15 415.84,-11.5 415.84,-18.5"/>
</a>
</g>
</g>
</g>
</svg>
