<?xml version="1.0" encoding="UTF-8" standalone="no"?>
<!DOCTYPE svg PUBLIC "-//W3C//DTD SVG 1.1//EN"
 "http://www.w3.org/Graphics/SVG/1.1/DTD/svg11.dtd">
<!-- Generated by graphviz version 2.42.4 (0)
 -->
<!-- Title: format_system_error Pages: 1 -->
<svg width="753pt" height="235pt"
 viewBox="0.00 0.00 753.00 235.00" xmlns="http://www.w3.org/2000/svg" xmlns:xlink="http://www.w3.org/1999/xlink">
<g id="graph0" class="graph" transform="scale(1 1) rotate(0) translate(4 231)">
<title>format_system_error</title>
<!-- Node1 -->
<g id="Node000001" class="node">
<title>Node1</title>
<g id="a_Node000001"><a xlink:title=" ">
<polygon fill="#999999" stroke="#666666" points="119,-92 0,-92 0,-73 119,-73 119,-92"/>
<text text-anchor="middle" x="59.5" y="-80" font-family="Helvetica,sans-Serif" font-size="10.00">format_system_error</text>
</a>
</g>
</g>
<!-- Node2 -->
<g id="Node000002" class="node">
<title>Node2</title>
<g id="a_Node000002"><a xlink:href="namespacedetail.html#a609d7411f77817f2def78afbbfdda40e" target="_top" xlink:title=" ">
<polygon fill="white" stroke="#666666" points="295,-129 155,-129 155,-110 295,-110 295,-129"/>
<text text-anchor="middle" x="225" y="-117" font-family="Helvetica,sans-Serif" font-size="10.00">detail::format_error_code</text>
</a>
</g>
</g>
<!-- Node1&#45;&gt;Node2 -->
<g id="edge1_Node000001_Node000002" class="edge">
<title>Node1&#45;&gt;Node2</title>
<g id="a_edge1_Node000001_Node000002"><a xlink:title=" ">
<path fill="none" stroke="#63b8ff" d="M102.61,-92.03C123.69,-96.8 149.42,-102.62 171.76,-107.68"/>
<polygon fill="#63b8ff" stroke="#63b8ff" points="171.23,-111.15 181.75,-109.94 172.77,-104.32 171.23,-111.15"/>
</a>
</g>
</g>
<!-- Node10 -->
<g id="Node000010" class="node">
<title>Node10</title>
<g id="a_Node000010"><a xlink:href="namespacedetail.html#a29dacf26eedc9e3575fb57329a5ca0a3" target="_top" xlink:title=" ">
<polygon fill="white" stroke="#666666" points="262.5,-74 187.5,-74 187.5,-55 262.5,-55 262.5,-74"/>
<text text-anchor="middle" x="225" y="-62" font-family="Helvetica,sans-Serif" font-size="10.00">detail::write</text>
</a>
</g>
</g>
<!-- Node1&#45;&gt;Node10 -->
<g id="edge10_Node000001_Node000010" class="edge">
<title>Node1&#45;&gt;Node10</title>
<g id="a_edge10_Node000001_Node000010"><a xlink:title=" ">
<path fill="none" stroke="#63b8ff" d="M119.07,-76.05C138.15,-73.95 159.07,-71.65 177.18,-69.65"/>
<polygon fill="#63b8ff" stroke="#63b8ff" points="177.64,-73.12 187.2,-68.55 176.88,-66.17 177.64,-73.12"/>
</a>
</g>
</g>
<!-- Node3 -->
<g id="Node000003" class="node">
<title>Node3</title>
<g id="a_Node000003"><a xlink:href="namespacedetail.html#ae970ad8cf6b25d7896f788089ca1b0eb" target="_top" xlink:title=" ">
<polygon fill="white" stroke="#666666" points="441,-185 331,-185 331,-166 441,-166 441,-185"/>
<text text-anchor="middle" x="386" y="-173" font-family="Helvetica,sans-Serif" font-size="10.00">detail::count_digits</text>
</a>
</g>
</g>
<!-- Node2&#45;&gt;Node3 -->
<g id="edge2_Node000002_Node000003" class="edge">
<title>Node2&#45;&gt;Node3</title>
<g id="a_edge2_Node000002_Node000003"><a xlink:title=" ">
<path fill="none" stroke="#63b8ff" d="M251.83,-129.05C273.04,-136.85 303.9,-148.08 331,-157.5 335.89,-159.2 341.04,-160.96 346.14,-162.68"/>
<polygon fill="#63b8ff" stroke="#63b8ff" points="345.21,-166.06 355.81,-165.92 347.44,-159.42 345.21,-166.06"/>
</a>
</g>
</g>
<!-- Node8 -->
<g id="Node000008" class="node">
<title>Node8</title>
<g id="a_Node000008"><a xlink:href="namespacedetail.html#ad066261eea6878e8474f069668e9a592" target="_top" xlink:title=" ">
<polygon fill="white" stroke="#666666" points="439.5,-148 332.5,-148 332.5,-129 439.5,-129 439.5,-148"/>
<text text-anchor="middle" x="386" y="-136" font-family="Helvetica,sans-Serif" font-size="10.00">detail::is_negative</text>
</a>
</g>
</g>
<!-- Node2&#45;&gt;Node8 -->
<g id="edge8_Node000002_Node000008" class="edge">
<title>Node2&#45;&gt;Node8</title>
<g id="a_edge8_Node000002_Node000008"><a xlink:title=" ">
<path fill="none" stroke="#63b8ff" d="M295.28,-127.78C304.18,-128.84 313.26,-129.93 322.05,-130.98"/>
<polygon fill="#63b8ff" stroke="#63b8ff" points="321.87,-134.48 332.21,-132.19 322.7,-127.53 321.87,-134.48"/>
</a>
</g>
</g>
<!-- Node9 -->
<g id="Node000009" class="node">
<title>Node9</title>
<g id="a_Node000009"><a xlink:href="namespacedetail.html#a4855e668246c731a97484efc329f2aac" target="_top" xlink:title=" ">
<polygon fill="white" stroke="#666666" points="441,-111 331,-111 331,-92 441,-92 441,-111"/>
<text text-anchor="middle" x="386" y="-99" font-family="Helvetica,sans-Serif" font-size="10.00">detail::to_unsigned</text>
</a>
</g>
</g>
<!-- Node2&#45;&gt;Node9 -->
<g id="edge9_Node000002_Node000009" class="edge">
<title>Node2&#45;&gt;Node9</title>
<g id="a_edge9_Node000002_Node000009"><a xlink:title=" ">
<path fill="none" stroke="#63b8ff" d="M295.28,-111.66C303.73,-110.7 312.33,-109.73 320.7,-108.78"/>
<polygon fill="#63b8ff" stroke="#63b8ff" points="321.23,-112.24 330.77,-107.64 320.44,-105.29 321.23,-112.24"/>
</a>
</g>
</g>
<!-- Node4 -->
<g id="Node000004" class="node">
<title>Node4</title>
<g id="a_Node000004"><a xlink:href="namespacedetail.html#a300bc96ee936e9f6ef3565c8dff68a72" target="_top" xlink:title=" ">
<polygon fill="white" stroke="#666666" points="587,-214.5 477,-214.5 477,-184.5 587,-184.5 587,-214.5"/>
<text text-anchor="start" x="485" y="-202.5" font-family="Helvetica,sans-Serif" font-size="10.00">detail::count_digits</text>
<text text-anchor="middle" x="532" y="-191.5" font-family="Helvetica,sans-Serif" font-size="10.00">_fallback</text>
</a>
</g>
</g>
<!-- Node3&#45;&gt;Node4 -->
<g id="edge3_Node000003_Node000004" class="edge">
<title>Node3&#45;&gt;Node4</title>
<g id="a_edge3_Node000003_Node000004"><a xlink:title=" ">
<path fill="none" stroke="#63b8ff" d="M441.03,-184.5C449.4,-185.9 458.13,-187.35 466.7,-188.78"/>
<polygon fill="#63b8ff" stroke="#63b8ff" points="466.23,-192.25 476.67,-190.44 467.38,-185.35 466.23,-192.25"/>
</a>
</g>
</g>
<!-- Node6 -->
<g id="Node000006" class="node">
<title>Node6</title>
<g id="a_Node000006"><a xlink:href="namespacedetail.html#a75ed2634319883d038944529dbb954e2" target="_top" xlink:title=" ">
<polygon fill="white" stroke="#666666" points="585,-166.5 479,-166.5 479,-136.5 585,-136.5 585,-166.5"/>
<text text-anchor="start" x="487" y="-154.5" font-family="Helvetica,sans-Serif" font-size="10.00">detail::is_constant</text>
<text text-anchor="middle" x="532" y="-143.5" font-family="Helvetica,sans-Serif" font-size="10.00">_evaluated</text>
</a>
</g>
</g>
<!-- Node3&#45;&gt;Node6 -->
<g id="edge6_Node000003_Node000006" class="edge">
<title>Node3&#45;&gt;Node6</title>
<g id="a_edge6_Node000003_Node000006"><a xlink:title=" ">
<path fill="none" stroke="#63b8ff" d="M441.03,-166.5C450.06,-164.99 459.48,-163.42 468.7,-161.88"/>
<polygon fill="#63b8ff" stroke="#63b8ff" points="469.29,-165.33 478.58,-160.24 468.14,-158.43 469.29,-165.33"/>
</a>
</g>
</g>
<!-- Node5 -->
<g id="Node000005" class="node">
<title>Node5</title>
<g id="a_Node000005"><a xlink:href="namespacedetail.html#adecb5dbdc5faeb0d252ab0f4cb92c8a9" target="_top" xlink:title=" ">
<polygon fill="white" stroke="#666666" points="722.5,-209 645.5,-209 645.5,-190 722.5,-190 722.5,-209"/>
<text text-anchor="middle" x="684" y="-197" font-family="Helvetica,sans-Serif" font-size="10.00">detail::count</text>
</a>
</g>
</g>
<!-- Node4&#45;&gt;Node5 -->
<g id="edge4_Node000004_Node000005" class="edge">
<title>Node4&#45;&gt;Node5</title>
<g id="a_edge4_Node000004_Node000005"><a xlink:title=" ">
<path fill="none" stroke="#63b8ff" d="M587.15,-199.5C602.84,-199.5 619.84,-199.5 635.11,-199.5"/>
<polygon fill="#63b8ff" stroke="#63b8ff" points="635.37,-203 645.37,-199.5 635.37,-196 635.37,-203"/>
</a>
</g>
</g>
<!-- Node5&#45;&gt;Node5 -->
<g id="edge5_Node000005_Node000005" class="edge">
<title>Node5&#45;&gt;Node5</title>
<g id="a_edge5_Node000005_Node000005"><a xlink:title=" ">
<path fill="none" stroke="#63b8ff" d="M660.57,-209.08C649.18,-217.73 656.98,-227 684,-227 701.73,-227 711.19,-223.01 712.37,-217.82"/>
<polygon fill="#63b8ff" stroke="#63b8ff" points="715.4,-216.06 707.43,-209.08 709.31,-219.51 715.4,-216.06"/>
</a>
</g>
</g>
<!-- Node7 -->
<g id="Node000007" class="node">
<title>Node7</title>
<g id="a_Node000007"><a xlink:href="namespacedetail.html#a1fe84ebaf96215ce0665d95b3124c2df" target="_top" xlink:title=" ">
<polygon fill="white" stroke="#666666" points="745,-161 623,-161 623,-142 745,-142 745,-161"/>
<text text-anchor="middle" x="684" y="-149" font-family="Helvetica,sans-Serif" font-size="10.00">detail::ignore_unused</text>
</a>
</g>
</g>
<!-- Node6&#45;&gt;Node7 -->
<g id="edge7_Node000006_Node000007" class="edge">
<title>Node6&#45;&gt;Node7</title>
<g id="a_edge7_Node000006_Node000007"><a xlink:title=" ">
<path fill="none" stroke="#63b8ff" d="M585.04,-151.5C593.99,-151.5 603.42,-151.5 612.75,-151.5"/>
<polygon fill="#63b8ff" stroke="#63b8ff" points="612.81,-155 622.81,-151.5 612.81,-148 612.81,-155"/>
</a>
</g>
</g>
<!-- Node11 -->
<g id="Node000011" class="node">
<title>Node11</title>
<g id="a_Node000011"><a xlink:href="color_8h.html#a680fd35ea38d8c3b75d640cacfab53fd" target="_top" xlink:title=" ">
<polygon fill="white" stroke="#666666" points="411,-74 361,-74 361,-55 411,-55 411,-74"/>
<text text-anchor="middle" x="386" y="-62" font-family="Helvetica,sans-Serif" font-size="10.00">format</text>
</a>
</g>
</g>
<!-- Node10&#45;&gt;Node11 -->
<g id="edge11_Node000010_Node000011" class="edge">
<title>Node10&#45;&gt;Node11</title>
<g id="a_edge11_Node000010_Node000011"><a xlink:title=" ">
<path fill="none" stroke="#63b8ff" d="M262.88,-64.5C289.32,-64.5 324.7,-64.5 350.58,-64.5"/>
<polygon fill="#63b8ff" stroke="#63b8ff" points="350.68,-68 360.68,-64.5 350.68,-61 350.68,-68"/>
</a>
</g>
</g>
<!-- Node12 -->
<g id="Node000012" class="node">
<title>Node12</title>
<g id="a_Node000012"><a xlink:href="namespacedetail.html#a05e3e231207d3f28f83261c2e7ad2fe5" target="_top" xlink:title=" ">
<polygon fill="white" stroke="#666666" points="439.5,-19 332.5,-19 332.5,0 439.5,0 439.5,-19"/>
<text text-anchor="middle" x="386" y="-7" font-family="Helvetica,sans-Serif" font-size="10.00">detail::get_iterator</text>
</a>
</g>
</g>
<!-- Node10&#45;&gt;Node12 -->
<g id="edge12_Node000010_Node000012" class="edge">
<title>Node10&#45;&gt;Node12</title>
<g id="a_edge12_Node000010_Node000012"><a xlink:title=" ">
<path fill="none" stroke="#63b8ff" d="M253.7,-54.92C279.72,-45.92 318.87,-32.38 347.65,-22.42"/>
<polygon fill="#63b8ff" stroke="#63b8ff" points="349.05,-25.64 357.36,-19.06 346.76,-19.02 349.05,-25.64"/>
</a>
</g>
</g>
<!-- Node12&#45;&gt;Node12 -->
<g id="edge13_Node000012_Node000012" class="edge">
<title>Node12&#45;&gt;Node12</title>
<g id="a_edge13_Node000012_Node000012"><a xlink:title=" ">
<path fill="none" stroke="#63b8ff" d="M363.5,-19.08C352.55,-27.73 360.05,-37 386,-37 402.62,-37 411.68,-33.2 413.16,-28.19"/>
<polygon fill="#63b8ff" stroke="#63b8ff" points="416.17,-26.39 408.5,-19.08 409.94,-29.58 416.17,-26.39"/>
</a>
</g>
</g>
</g>
</svg>
