<?xml version="1.0" encoding="UTF-8" standalone="no"?>
<!DOCTYPE svg PUBLIC "-//W3C//DTD SVG 1.1//EN"
 "http://www.w3.org/Graphics/SVG/1.1/DTD/svg11.dtd">
<!-- Generated by graphviz version 2.42.4 (0)
 -->
<!-- Title: detail::parse_chrono_format Pages: 1 -->
<svg width="290pt" height="205pt"
 viewBox="0.00 0.00 290.00 204.50" xmlns="http://www.w3.org/2000/svg" xmlns:xlink="http://www.w3.org/1999/xlink">
<g id="graph0" class="graph" transform="scale(1 1) rotate(0) translate(4 200.5)">
<title>detail::parse_chrono_format</title>
<!-- Node1 -->
<g id="Node000001" class="node">
<title>Node1</title>
<g id="a_Node000001"><a xlink:title=" ">
<polygon fill="#999999" stroke="#666666" points="282,-121.5 166,-121.5 166,-91.5 282,-91.5 282,-121.5"/>
<text text-anchor="start" x="174" y="-109.5" font-family="Helvetica,sans-Serif" font-size="10.00">detail::parse_chrono</text>
<text text-anchor="middle" x="224" y="-98.5" font-family="Helvetica,sans-Serif" font-size="10.00">_format</text>
</a>
</g>
</g>
<!-- Node2 -->
<g id="Node000002" class="node">
<title>Node2</title>
<g id="a_Node000002"><a xlink:href="structformatter_3_01std_1_1tm_00_01Char_01_4.html#a9b5eac325370d60c8293386b1331ca69" target="_top" xlink:title=" ">
<polygon fill="white" stroke="#666666" points="121,-196.5 9,-196.5 9,-166.5 121,-166.5 121,-196.5"/>
<text text-anchor="start" x="17" y="-184.5" font-family="Helvetica,sans-Serif" font-size="10.00">formatter&lt; std::tm,</text>
<text text-anchor="middle" x="65" y="-173.5" font-family="Helvetica,sans-Serif" font-size="10.00"> Char &gt;::do_format</text>
</a>
</g>
</g>
<!-- Node1&#45;&gt;Node2 -->
<g id="edge1_Node000001_Node000002" class="edge">
<title>Node1&#45;&gt;Node2</title>
<g id="a_edge1_Node000001_Node000002"><a xlink:title=" ">
<path fill="none" stroke="#63b8ff" d="M189.18,-126.57C171.8,-136.49 150.1,-148.28 130,-157.5 123.21,-160.62 115.88,-163.65 108.69,-166.46"/>
<polygon fill="#63b8ff" stroke="#63b8ff" points="190.93,-129.6 197.85,-121.57 187.43,-123.53 190.93,-129.6"/>
</a>
</g>
</g>
<!-- Node3 -->
<g id="Node000003" class="node">
<title>Node3</title>
<g id="a_Node000003"><a xlink:href="structformatter_3_01std_1_1tm_00_01Char_01_4.html#a129b6aab54742e2da9ec4555d18aadf0" target="_top" xlink:title=" ">
<polygon fill="white" stroke="#666666" points="121,-148.5 9,-148.5 9,-118.5 121,-118.5 121,-148.5"/>
<text text-anchor="start" x="17" y="-136.5" font-family="Helvetica,sans-Serif" font-size="10.00">formatter&lt; std::tm,</text>
<text text-anchor="middle" x="65" y="-125.5" font-family="Helvetica,sans-Serif" font-size="10.00"> Char &gt;::do_parse</text>
</a>
</g>
</g>
<!-- Node1&#45;&gt;Node3 -->
<g id="edge2_Node000001_Node000003" class="edge">
<title>Node1&#45;&gt;Node3</title>
<g id="a_edge2_Node000001_Node000003"><a xlink:title=" ">
<path fill="none" stroke="#63b8ff" d="M155.85,-118.05C144.3,-120.03 132.43,-122.08 121.25,-124"/>
<polygon fill="#63b8ff" stroke="#63b8ff" points="156.61,-121.47 165.88,-116.32 155.43,-114.57 156.61,-121.47"/>
</a>
</g>
</g>
<!-- Node4 -->
<g id="Node000004" class="node">
<title>Node4</title>
<g id="a_Node000004"><a xlink:href="structformatter_3_01std_1_1chrono_1_1duration_3_01Rep_00_01Period_01_4_00_01Char_01_4.html#a4a5f18da796aba79bd0604170d0d3b4e" target="_top" xlink:title=" ">
<polygon fill="white" stroke="#666666" points="130,-100 0,-100 0,-59 130,-59 130,-100"/>
<text text-anchor="start" x="8" y="-88" font-family="Helvetica,sans-Serif" font-size="10.00">formatter&lt; std::chrono</text>
<text text-anchor="start" x="8" y="-77" font-family="Helvetica,sans-Serif" font-size="10.00">::duration&lt; Rep, Period</text>
<text text-anchor="middle" x="65" y="-66" font-family="Helvetica,sans-Serif" font-size="10.00"> &gt;, Char &gt;::format</text>
</a>
</g>
</g>
<!-- Node1&#45;&gt;Node4 -->
<g id="edge3_Node000001_Node000004" class="edge">
<title>Node1&#45;&gt;Node4</title>
<g id="a_edge3_Node000001_Node000004"><a xlink:title=" ">
<path fill="none" stroke="#63b8ff" d="M155.98,-94.97C147.45,-93.51 138.74,-92.01 130.26,-90.55"/>
<polygon fill="#63b8ff" stroke="#63b8ff" points="155.43,-98.43 165.88,-96.68 156.61,-91.53 155.43,-98.43"/>
</a>
</g>
</g>
<!-- Node5 -->
<g id="Node000005" class="node">
<title>Node5</title>
<g id="a_Node000005"><a xlink:href="structformatter_3_01std_1_1chrono_1_1duration_3_01Rep_00_01Period_01_4_00_01Char_01_4.html#acaf11fe44bb589d39da3151b44a28202" target="_top" xlink:title=" ">
<polygon fill="white" stroke="#666666" points="130,-41 0,-41 0,0 130,0 130,-41"/>
<text text-anchor="start" x="8" y="-29" font-family="Helvetica,sans-Serif" font-size="10.00">formatter&lt; std::chrono</text>
<text text-anchor="start" x="8" y="-18" font-family="Helvetica,sans-Serif" font-size="10.00">::duration&lt; Rep, Period</text>
<text text-anchor="middle" x="65" y="-7" font-family="Helvetica,sans-Serif" font-size="10.00"> &gt;, Char &gt;::parse</text>
</a>
</g>
</g>
<!-- Node1&#45;&gt;Node5 -->
<g id="edge4_Node000001_Node000005" class="edge">
<title>Node1&#45;&gt;Node5</title>
<g id="a_edge4_Node000001_Node000005"><a xlink:title=" ">
<path fill="none" stroke="#63b8ff" d="M190.54,-85.82C172.89,-74.87 150.53,-61.46 130,-50.5 124.05,-47.32 117.7,-44.13 111.39,-41.06"/>
<polygon fill="#63b8ff" stroke="#63b8ff" points="188.97,-88.97 199.31,-91.3 192.68,-83.03 188.97,-88.97"/>
</a>
</g>
</g>
</g>
</svg>
