<?xml version="1.0" encoding="UTF-8" standalone="no"?>
<!DOCTYPE svg PUBLIC "-//W3C//DTD SVG 1.1//EN"
 "http://www.w3.org/Graphics/SVG/1.1/DTD/svg11.dtd">
<!-- Generated by graphviz version 2.42.4 (0)
 -->
<!-- Title: detail::vprintf Pages: 1 -->
<svg width="626pt" height="478pt"
 viewBox="0.00 0.00 626.00 478.38" xmlns="http://www.w3.org/2000/svg" xmlns:xlink="http://www.w3.org/1999/xlink">
<g id="graph0" class="graph" transform="scale(1 1) rotate(0) translate(4 474.38)">
<title>detail::vprintf</title>
<!-- Node1 -->
<g id="Node000001" class="node">
<title>Node1</title>
<g id="a_Node000001"><a xlink:title=" ">
<polygon fill="#999999" stroke="#666666" points="83,-218.5 0,-218.5 0,-199.5 83,-199.5 83,-218.5"/>
<text text-anchor="middle" x="41.5" y="-206.5" font-family="Helvetica,sans-Serif" font-size="10.00">detail::vprintf</text>
</a>
</g>
</g>
<!-- Node2 -->
<g id="Node000002" class="node">
<title>Node2</title>
<g id="a_Node000002"><a xlink:href="base_8h.html#aa6e4c2631b1a133286786130bf11a9cc" target="_top" xlink:title=" ">
<polygon fill="white" stroke="#666666" points="571.5,-442.5 539.5,-442.5 539.5,-423.5 571.5,-423.5 571.5,-442.5"/>
<text text-anchor="middle" x="555.5" y="-430.5" font-family="Helvetica,sans-Serif" font-size="10.00">arg</text>
</a>
</g>
</g>
<!-- Node1&#45;&gt;Node2 -->
<g id="edge1_Node000001_Node000002" class="edge">
<title>Node1&#45;&gt;Node2</title>
<g id="a_edge1_Node000001_Node000002"><a xlink:title=" ">
<path fill="none" stroke="#63b8ff" d="M42.66,-218.92C43.8,-252.98 52.63,-365.75 119,-414 247.38,-507.33 457.72,-460.49 529.55,-440.51"/>
<polygon fill="#63b8ff" stroke="#63b8ff" points="530.83,-443.78 539.49,-437.67 528.91,-437.05 530.83,-443.78"/>
</a>
</g>
</g>
<!-- Node3 -->
<g id="Node000003" class="node">
<title>Node3</title>
<g id="a_Node000003"><a xlink:href="classcontext.html#affbf0489e1c9f6d7273f1ca331cf9317" target="_top" xlink:title=" ">
<polygon fill="white" stroke="#666666" points="227,-404.5 152,-404.5 152,-385.5 227,-385.5 227,-404.5"/>
<text text-anchor="middle" x="189.5" y="-392.5" font-family="Helvetica,sans-Serif" font-size="10.00">context::arg</text>
</a>
</g>
</g>
<!-- Node1&#45;&gt;Node3 -->
<g id="edge3_Node000001_Node000003" class="edge">
<title>Node1&#45;&gt;Node3</title>
<g id="a_edge3_Node000001_Node000003"><a xlink:title=" ">
<path fill="none" stroke="#63b8ff" d="M44.31,-218.59C50.05,-246.32 70.37,-327.39 119,-371 125.63,-376.94 133.8,-381.43 142.19,-384.81"/>
<polygon fill="#63b8ff" stroke="#63b8ff" points="141.09,-388.14 151.68,-388.18 143.43,-381.54 141.09,-388.14"/>
</a>
</g>
</g>
<!-- Node6 -->
<g id="Node000006" class="node">
<title>Node6</title>
<g id="a_Node000006"><a xlink:href="color_8h.html#a680fd35ea38d8c3b75d640cacfab53fd" target="_top" xlink:title=" ">
<polygon fill="white" stroke="#666666" points="401.5,-142.5 351.5,-142.5 351.5,-123.5 401.5,-123.5 401.5,-142.5"/>
<text text-anchor="middle" x="376.5" y="-130.5" font-family="Helvetica,sans-Serif" font-size="10.00">format</text>
</a>
</g>
</g>
<!-- Node1&#45;&gt;Node6 -->
<g id="edge7_Node000001_Node000006" class="edge">
<title>Node1&#45;&gt;Node6</title>
<g id="a_edge7_Node000001_Node000006"><a xlink:title=" ">
<path fill="none" stroke="#63b8ff" d="M58.63,-199.43C73.72,-190.91 97.16,-178.77 119,-172 196.16,-148.07 291.09,-138.53 341.03,-134.96"/>
<polygon fill="#63b8ff" stroke="#63b8ff" points="341.53,-138.44 351.27,-134.27 341.06,-131.45 341.53,-138.44"/>
</a>
</g>
</g>
<!-- Node7 -->
<g id="Node000007" class="node">
<title>Node7</title>
<g id="a_Node000007"><a xlink:href="namespacedetail.html#a802c50a56a3495fdab6020b375ba1389" target="_top" xlink:title=" ">
<polygon fill="white" stroke="#666666" points="260,-310.5 119,-310.5 119,-291.5 260,-291.5 260,-310.5"/>
<text text-anchor="middle" x="189.5" y="-298.5" font-family="Helvetica,sans-Serif" font-size="10.00">detail::is_arithmetic_type</text>
</a>
</g>
</g>
<!-- Node1&#45;&gt;Node7 -->
<g id="edge8_Node000001_Node000007" class="edge">
<title>Node1&#45;&gt;Node7</title>
<g id="a_edge8_Node000001_Node000007"><a xlink:title=" ">
<path fill="none" stroke="#63b8ff" d="M49.61,-218.55C61.93,-234.4 88.86,-266.1 119,-283 122.23,-284.81 125.66,-286.45 129.18,-287.92"/>
<polygon fill="#63b8ff" stroke="#63b8ff" points="128.08,-291.25 138.67,-291.46 130.52,-284.69 128.08,-291.25"/>
</a>
</g>
</g>
<!-- Node8 -->
<g id="Node000008" class="node">
<title>Node8</title>
<g id="a_Node000008"><a xlink:href="namespacedetail.html#a2a60f8d1bee41b803f43fc42b707b5d1" target="_top" xlink:title=" ">
<polygon fill="white" stroke="#666666" points="253.5,-255.5 125.5,-255.5 125.5,-236.5 253.5,-236.5 253.5,-255.5"/>
<text text-anchor="middle" x="189.5" y="-243.5" font-family="Helvetica,sans-Serif" font-size="10.00">detail::is_integral_type</text>
</a>
</g>
</g>
<!-- Node1&#45;&gt;Node8 -->
<g id="edge10_Node000001_Node000008" class="edge">
<title>Node1&#45;&gt;Node8</title>
<g id="a_edge10_Node000001_Node000008"><a xlink:title=" ">
<path fill="none" stroke="#63b8ff" d="M80.1,-218.53C98.67,-223.24 121.28,-228.97 141.04,-233.97"/>
<polygon fill="#63b8ff" stroke="#63b8ff" points="140.22,-237.38 150.78,-236.44 141.94,-230.59 140.22,-237.38"/>
</a>
</g>
</g>
<!-- Node9 -->
<g id="Node000009" class="node">
<title>Node9</title>
<g id="a_Node000009"><a xlink:href="namespacedetail.html#afc9d93e58b8edb8077f8bc8eee7f4035" target="_top" xlink:title=" ">
<polygon fill="white" stroke="#666666" points="247.5,-218.5 131.5,-218.5 131.5,-199.5 247.5,-199.5 247.5,-218.5"/>
<text text-anchor="middle" x="189.5" y="-206.5" font-family="Helvetica,sans-Serif" font-size="10.00">detail::parse_header</text>
</a>
</g>
</g>
<!-- Node1&#45;&gt;Node9 -->
<g id="edge12_Node000001_Node000009" class="edge">
<title>Node1&#45;&gt;Node9</title>
<g id="a_edge12_Node000001_Node000009"><a xlink:title=" ">
<path fill="none" stroke="#63b8ff" d="M83.17,-209C94.95,-209 108.15,-209 121.1,-209"/>
<polygon fill="#63b8ff" stroke="#63b8ff" points="121.41,-212.5 131.41,-209 121.41,-205.5 121.41,-212.5"/>
</a>
</g>
</g>
<!-- Node16 -->
<g id="Node000016" class="node">
<title>Node16</title>
<g id="a_Node000016"><a xlink:href="namespacedetail.html#a338caba782225e115a9902d4d0835f5f" target="_top" xlink:title=" ">
<polygon fill="white" stroke="#666666" points="457,-339.5 296,-339.5 296,-320.5 457,-320.5 457,-339.5"/>
<text text-anchor="middle" x="376.5" y="-327.5" font-family="Helvetica,sans-Serif" font-size="10.00">detail::parse_nonnegative_int</text>
</a>
</g>
</g>
<!-- Node1&#45;&gt;Node16 -->
<g id="edge23_Node000001_Node000016" class="edge">
<title>Node1&#45;&gt;Node16</title>
<g id="a_edge23_Node000001_Node000016"><a xlink:title=" ">
<path fill="none" stroke="#63b8ff" d="M44.78,-218.8C51.26,-244.1 72.39,-311.45 119,-338 188.28,-377.46 286.05,-357.84 338.62,-342.46"/>
<polygon fill="#63b8ff" stroke="#63b8ff" points="339.65,-345.8 348.2,-339.55 337.62,-339.1 339.65,-345.8"/>
</a>
</g>
</g>
<!-- Node18 -->
<g id="Node000018" class="node">
<title>Node18</title>
<g id="a_Node000018"><a xlink:href="format-inl_8h.html#a5555893692b00b61b3886349332fd01f" target="_top" xlink:title=" ">
<polygon fill="white" stroke="#666666" points="413.5,-180.5 339.5,-180.5 339.5,-161.5 413.5,-161.5 413.5,-180.5"/>
<text text-anchor="middle" x="376.5" y="-168.5" font-family="Helvetica,sans-Serif" font-size="10.00">report_error</text>
</a>
</g>
</g>
<!-- Node1&#45;&gt;Node18 -->
<g id="edge27_Node000001_Node000018" class="edge">
<title>Node1&#45;&gt;Node18</title>
<g id="a_edge27_Node000001_Node000018"><a xlink:title=" ">
<path fill="none" stroke="#63b8ff" d="M78.08,-199.43C90.9,-196.3 105.52,-193.1 119,-191 191.88,-179.65 277.46,-174.62 329.03,-172.48"/>
<polygon fill="#63b8ff" stroke="#63b8ff" points="329.34,-175.97 339.19,-172.08 329.06,-168.98 329.34,-175.97"/>
</a>
</g>
</g>
<!-- Node19 -->
<g id="Node000019" class="node">
<title>Node19</title>
<g id="a_Node000019"><a xlink:href="namespacedetail.html#aa2cb095169b23e3a66260ad7078f44cc" target="_top" xlink:title=" ">
<polygon fill="white" stroke="#666666" points="244.5,-30 134.5,-30 134.5,0 244.5,0 244.5,-30"/>
<text text-anchor="start" x="142.5" y="-18" font-family="Helvetica,sans-Serif" font-size="10.00">detail::parse_printf</text>
<text text-anchor="middle" x="189.5" y="-7" font-family="Helvetica,sans-Serif" font-size="10.00">_presentation_type</text>
</a>
</g>
</g>
<!-- Node1&#45;&gt;Node19 -->
<g id="edge24_Node000001_Node000019" class="edge">
<title>Node1&#45;&gt;Node19</title>
<g id="a_edge24_Node000001_Node000019"><a xlink:title=" ">
<path fill="none" stroke="#63b8ff" d="M44.09,-199.36C49.31,-170.68 68.58,-85.06 119,-39 120.98,-37.19 123.1,-35.52 125.33,-33.97"/>
<polygon fill="#63b8ff" stroke="#63b8ff" points="127.56,-36.72 134.37,-28.6 123.99,-30.7 127.56,-36.72"/>
</a>
</g>
</g>
<!-- Node21 -->
<g id="Node000021" class="node">
<title>Node21</title>
<g id="a_Node000021"><a xlink:href="namespacedetail.html#a4855e668246c731a97484efc329f2aac" target="_top" xlink:title=" ">
<polygon fill="white" stroke="#666666" points="244.5,-67.5 134.5,-67.5 134.5,-48.5 244.5,-48.5 244.5,-67.5"/>
<text text-anchor="middle" x="189.5" y="-55.5" font-family="Helvetica,sans-Serif" font-size="10.00">detail::to_unsigned</text>
</a>
</g>
</g>
<!-- Node1&#45;&gt;Node21 -->
<g id="edge28_Node000001_Node000021" class="edge">
<title>Node1&#45;&gt;Node21</title>
<g id="a_edge28_Node000001_Node000021"><a xlink:title=" ">
<path fill="none" stroke="#63b8ff" d="M45.23,-199.21C52.64,-174.47 75.57,-109.1 119,-76 121.04,-74.45 123.2,-73.03 125.45,-71.73"/>
<polygon fill="#63b8ff" stroke="#63b8ff" points="127.04,-74.84 134.48,-67.3 123.96,-68.56 127.04,-74.84"/>
</a>
</g>
</g>
<!-- Node22 -->
<g id="Node000022" class="node">
<title>Node22</title>
<g id="a_Node000022"><a xlink:href="namespacedetail.html#a29dacf26eedc9e3575fb57329a5ca0a3" target="_top" xlink:title=" ">
<polygon fill="white" stroke="#666666" points="227,-104.5 152,-104.5 152,-85.5 227,-85.5 227,-104.5"/>
<text text-anchor="middle" x="189.5" y="-92.5" font-family="Helvetica,sans-Serif" font-size="10.00">detail::write</text>
</a>
</g>
</g>
<!-- Node1&#45;&gt;Node22 -->
<g id="edge29_Node000001_Node000022" class="edge">
<title>Node1&#45;&gt;Node22</title>
<g id="a_edge29_Node000001_Node000022"><a xlink:title=" ">
<path fill="none" stroke="#63b8ff" d="M48.18,-199.39C59.44,-181.14 86.32,-141.33 119,-119 126.05,-114.19 134.15,-110.25 142.28,-107.06"/>
<polygon fill="#63b8ff" stroke="#63b8ff" points="143.54,-110.33 151.77,-103.65 141.18,-103.74 143.54,-110.33"/>
</a>
</g>
</g>
<!-- Node2&#45;&gt;Node2 -->
<g id="edge2_Node000002_Node000002" class="edge">
<title>Node2&#45;&gt;Node2</title>
<g id="a_edge2_Node000002_Node000002"><a xlink:title=" ">
<path fill="none" stroke="#63b8ff" d="M539.37,-437.33C511.88,-446.96 517.26,-460.5 555.5,-460.5 588.66,-460.5 597.11,-450.32 580.85,-441.34"/>
<polygon fill="#63b8ff" stroke="#63b8ff" points="582.2,-438.11 571.63,-437.33 579.41,-444.53 582.2,-438.11"/>
</a>
</g>
</g>
<!-- Node4 -->
<g id="Node000004" class="node">
<title>Node4</title>
<g id="a_Node000004"><a xlink:href="classbasic__format__args.html#a3339d3a4e4daaf7bb0de1a8084e7f086" target="_top" xlink:title="Returns the argument with the specified id.">
<polygon fill="white" stroke="#666666" points="440.5,-404.5 312.5,-404.5 312.5,-385.5 440.5,-385.5 440.5,-404.5"/>
<text text-anchor="middle" x="376.5" y="-392.5" font-family="Helvetica,sans-Serif" font-size="10.00">basic_format_args::get</text>
</a>
</g>
</g>
<!-- Node3&#45;&gt;Node4 -->
<g id="edge4_Node000003_Node000004" class="edge">
<title>Node3&#45;&gt;Node4</title>
<g id="a_edge4_Node000003_Node000004"><a xlink:title=" ">
<path fill="none" stroke="#63b8ff" d="M227.05,-395C248.52,-395 276.44,-395 302.27,-395"/>
<polygon fill="#63b8ff" stroke="#63b8ff" points="302.42,-398.5 312.42,-395 302.42,-391.5 302.42,-398.5"/>
</a>
</g>
</g>
<!-- Node4&#45;&gt;Node2 -->
<g id="edge5_Node000004_Node000002" class="edge">
<title>Node4&#45;&gt;Node2</title>
<g id="a_edge5_Node000004_Node000002"><a xlink:title=" ">
<path fill="none" stroke="#63b8ff" d="M422.16,-404.59C455.98,-411.85 501.21,-421.56 529.08,-427.54"/>
<polygon fill="#63b8ff" stroke="#63b8ff" points="528.68,-431.04 539.19,-429.71 530.15,-424.19 528.68,-431.04"/>
</a>
</g>
</g>
<!-- Node5 -->
<g id="Node000005" class="node">
<title>Node5</title>
<g id="a_Node000005"><a xlink:href="classbasic__format__args.html#a7747894fe7c14fb78260b53ca7702782" target="_top" xlink:title=" ">
<polygon fill="white" stroke="#666666" points="612,-405 499,-405 499,-375 612,-375 612,-405"/>
<text text-anchor="start" x="507" y="-393" font-family="Helvetica,sans-Serif" font-size="10.00">basic_format_args::</text>
<text text-anchor="middle" x="555.5" y="-382" font-family="Helvetica,sans-Serif" font-size="10.00">max_size</text>
</a>
</g>
</g>
<!-- Node4&#45;&gt;Node5 -->
<g id="edge6_Node000004_Node000005" class="edge">
<title>Node4&#45;&gt;Node5</title>
<g id="a_edge6_Node000004_Node000005"><a xlink:title=" ">
<path fill="none" stroke="#63b8ff" d="M440.9,-393.21C456.44,-392.77 473.11,-392.3 488.76,-391.86"/>
<polygon fill="#63b8ff" stroke="#63b8ff" points="488.98,-395.35 498.87,-391.57 488.78,-388.36 488.98,-395.35"/>
</a>
</g>
</g>
<!-- Node7&#45;&gt;Node7 -->
<g id="edge9_Node000007_Node000007" class="edge">
<title>Node7&#45;&gt;Node7</title>
<g id="a_edge9_Node000007_Node000007"><a xlink:title=" ">
<path fill="none" stroke="#63b8ff" d="M166.69,-310.58C155.59,-319.23 163.2,-328.5 189.5,-328.5 206.35,-328.5 215.53,-324.7 217.03,-319.69"/>
<polygon fill="#63b8ff" stroke="#63b8ff" points="220.02,-317.85 212.31,-310.58 213.8,-321.07 220.02,-317.85"/>
</a>
</g>
</g>
<!-- Node8&#45;&gt;Node8 -->
<g id="edge11_Node000008_Node000008" class="edge">
<title>Node8&#45;&gt;Node8</title>
<g id="a_edge11_Node000008_Node000008"><a xlink:title=" ">
<path fill="none" stroke="#63b8ff" d="M166.69,-255.58C155.59,-264.23 163.2,-273.5 189.5,-273.5 206.35,-273.5 215.53,-269.7 217.03,-264.69"/>
<polygon fill="#63b8ff" stroke="#63b8ff" points="220.02,-262.85 212.31,-255.58 213.8,-266.07 220.02,-262.85"/>
</a>
</g>
</g>
<!-- Node10 -->
<g id="Node000010" class="node">
<title>Node10</title>
<g id="a_Node000010"><a xlink:href="namespacedetail.html#a4213daed116a37e1767881da51238261" target="_top" xlink:title=" ">
<polygon fill="white" stroke="#666666" points="429.5,-218.5 323.5,-218.5 323.5,-199.5 429.5,-199.5 429.5,-218.5"/>
<text text-anchor="middle" x="376.5" y="-206.5" font-family="Helvetica,sans-Serif" font-size="10.00">detail::parse_flags</text>
</a>
</g>
</g>
<!-- Node9&#45;&gt;Node10 -->
<g id="edge13_Node000009_Node000010" class="edge">
<title>Node9&#45;&gt;Node10</title>
<g id="a_edge13_Node000009_Node000010"><a xlink:title=" ">
<path fill="none" stroke="#63b8ff" d="M247.52,-209C268.32,-209 291.94,-209 313.18,-209"/>
<polygon fill="#63b8ff" stroke="#63b8ff" points="313.39,-212.5 323.39,-209 313.39,-205.5 313.39,-212.5"/>
</a>
</g>
</g>
<!-- Node9&#45;&gt;Node16 -->
<g id="edge19_Node000009_Node000016" class="edge">
<title>Node9&#45;&gt;Node16</title>
<g id="a_edge19_Node000009_Node000016"><a xlink:title=" ">
<path fill="none" stroke="#63b8ff" d="M237.25,-218.61C245.09,-221.11 252.96,-224.2 260,-228 301.3,-250.3 340.24,-289.95 360.66,-312.68"/>
<polygon fill="#63b8ff" stroke="#63b8ff" points="358.07,-315.05 367.31,-320.23 363.33,-310.42 358.07,-315.05"/>
</a>
</g>
</g>
<!-- Node9&#45;&gt;Node18 -->
<g id="edge22_Node000009_Node000018" class="edge">
<title>Node9&#45;&gt;Node18</title>
<g id="a_edge22_Node000009_Node000018"><a xlink:title=" ">
<path fill="none" stroke="#63b8ff" d="M237.18,-199.41C265.4,-193.61 301.23,-186.26 329.35,-180.48"/>
<polygon fill="#63b8ff" stroke="#63b8ff" points="330.24,-183.87 339.34,-178.43 328.84,-177.01 330.24,-183.87"/>
</a>
</g>
</g>
<!-- Node11 -->
<g id="Node000011" class="node">
<title>Node11</title>
<g id="a_Node000011"><a xlink:href="classbasic__specs.html#ad73b6f854341aaabc744bf54e6ea6af6" target="_top" xlink:title=" ">
<polygon fill="white" stroke="#666666" points="618,-181.5 493,-181.5 493,-162.5 618,-162.5 618,-181.5"/>
<text text-anchor="middle" x="555.5" y="-169.5" font-family="Helvetica,sans-Serif" font-size="10.00">basic_specs::set_align</text>
</a>
</g>
</g>
<!-- Node10&#45;&gt;Node11 -->
<g id="edge14_Node000010_Node000011" class="edge">
<title>Node10&#45;&gt;Node11</title>
<g id="a_edge14_Node000010_Node000011"><a xlink:title=" ">
<path fill="none" stroke="#63b8ff" d="M423.08,-199.47C446.22,-194.64 474.52,-188.72 498.92,-183.62"/>
<polygon fill="#63b8ff" stroke="#63b8ff" points="499.69,-187.03 508.77,-181.56 498.26,-180.18 499.69,-187.03"/>
</a>
</g>
</g>
<!-- Node12 -->
<g id="Node000012" class="node">
<title>Node12</title>
<g id="a_Node000012"><a xlink:href="classbasic__specs.html#a5f10314706a8a3d579f882f30d283b61" target="_top" xlink:title=" ">
<polygon fill="white" stroke="#666666" points="612.5,-144.5 498.5,-144.5 498.5,-125.5 612.5,-125.5 612.5,-144.5"/>
<text text-anchor="middle" x="555.5" y="-132.5" font-family="Helvetica,sans-Serif" font-size="10.00">basic_specs::set_alt</text>
</a>
</g>
</g>
<!-- Node10&#45;&gt;Node12 -->
<g id="edge15_Node000010_Node000012" class="edge">
<title>Node10&#45;&gt;Node12</title>
<g id="a_edge15_Node000010_Node000012"><a xlink:title=" ">
<path fill="none" stroke="#63b8ff" d="M429.58,-201.02C439.07,-198.34 448.61,-194.77 457,-190 476.95,-178.66 473.34,-164.83 493,-153 495.81,-151.31 498.79,-149.77 501.86,-148.36"/>
<polygon fill="#63b8ff" stroke="#63b8ff" points="503.32,-151.55 511.28,-144.56 500.7,-145.06 503.32,-151.55"/>
</a>
</g>
</g>
<!-- Node13 -->
<g id="Node000013" class="node">
<title>Node13</title>
<g id="a_Node000013"><a xlink:href="classbasic__specs.html#a1600987fb39fed5dfdac21b218061a9e" target="_top" xlink:title=" ">
<polygon fill="white" stroke="#666666" points="612,-292.5 499,-292.5 499,-273.5 612,-273.5 612,-292.5"/>
<text text-anchor="middle" x="555.5" y="-280.5" font-family="Helvetica,sans-Serif" font-size="10.00">basic_specs::set_fill</text>
</a>
</g>
</g>
<!-- Node10&#45;&gt;Node13 -->
<g id="edge16_Node000010_Node000013" class="edge">
<title>Node10&#45;&gt;Node13</title>
<g id="a_edge16_Node000010_Node000013"><a xlink:title=" ">
<path fill="none" stroke="#63b8ff" d="M395.09,-218.68C417.39,-230.67 457.24,-251.21 493,-265 497.87,-266.88 503.02,-268.67 508.19,-270.35"/>
<polygon fill="#63b8ff" stroke="#63b8ff" points="507.48,-273.8 518.07,-273.43 509.56,-267.11 507.48,-273.8"/>
</a>
</g>
</g>
<!-- Node14 -->
<g id="Node000014" class="node">
<title>Node14</title>
<g id="a_Node000014"><a xlink:href="classbasic__specs.html#a7020ec66ba6918727e4102567c5c731a" target="_top" xlink:title=" ">
<polygon fill="white" stroke="#666666" points="616.5,-255.5 494.5,-255.5 494.5,-236.5 616.5,-236.5 616.5,-255.5"/>
<text text-anchor="middle" x="555.5" y="-243.5" font-family="Helvetica,sans-Serif" font-size="10.00">basic_specs::set_sign</text>
</a>
</g>
</g>
<!-- Node10&#45;&gt;Node14 -->
<g id="edge17_Node000010_Node000014" class="edge">
<title>Node10&#45;&gt;Node14</title>
<g id="a_edge17_Node000010_Node000014"><a xlink:title=" ">
<path fill="none" stroke="#63b8ff" d="M423.08,-218.53C446.22,-223.36 474.52,-229.28 498.92,-234.38"/>
<polygon fill="#63b8ff" stroke="#63b8ff" points="498.26,-237.82 508.77,-236.44 499.69,-230.97 498.26,-237.82"/>
</a>
</g>
</g>
<!-- Node15 -->
<g id="Node000015" class="node">
<title>Node15</title>
<g id="a_Node000015"><a xlink:href="classbasic__specs.html#a380e6ff33a8ae05e3ef479bf95696ad2" target="_top" xlink:title=" ">
<polygon fill="white" stroke="#666666" points="606,-218.5 505,-218.5 505,-199.5 606,-199.5 606,-218.5"/>
<text text-anchor="middle" x="555.5" y="-206.5" font-family="Helvetica,sans-Serif" font-size="10.00">basic_specs::sign</text>
</a>
</g>
</g>
<!-- Node10&#45;&gt;Node15 -->
<g id="edge18_Node000010_Node000015" class="edge">
<title>Node10&#45;&gt;Node15</title>
<g id="a_edge18_Node000010_Node000015"><a xlink:title=" ">
<path fill="none" stroke="#63b8ff" d="M429.65,-209C450.07,-209 473.61,-209 494.71,-209"/>
<polygon fill="#63b8ff" stroke="#63b8ff" points="494.85,-212.5 504.85,-209 494.85,-205.5 494.85,-212.5"/>
</a>
</g>
</g>
<!-- Node16&#45;&gt;Node16 -->
<g id="edge21_Node000016_Node000016" class="edge">
<title>Node16&#45;&gt;Node16</title>
<g id="a_edge21_Node000016_Node000016"><a xlink:title=" ">
<path fill="none" stroke="#63b8ff" d="M349.07,-339.58C335.72,-348.23 344.86,-357.5 376.5,-357.5 397.76,-357.5 408.86,-353.32 409.81,-347.95"/>
<polygon fill="#63b8ff" stroke="#63b8ff" points="412.55,-345.76 403.93,-339.58 406.82,-349.78 412.55,-345.76"/>
</a>
</g>
</g>
<!-- Node17 -->
<g id="Node000017" class="node">
<title>Node17</title>
<g id="a_Node000017"><a xlink:href="namespacedetail.html#a3a043db05db2d07deb2d98ba2d04b4eb" target="_top" xlink:title=" ">
<polygon fill="white" stroke="#666666" points="600,-339.5 511,-339.5 511,-320.5 600,-320.5 600,-339.5"/>
<text text-anchor="middle" x="555.5" y="-327.5" font-family="Helvetica,sans-Serif" font-size="10.00">detail::digits10</text>
</a>
</g>
</g>
<!-- Node16&#45;&gt;Node17 -->
<g id="edge20_Node000016_Node000017" class="edge">
<title>Node16&#45;&gt;Node17</title>
<g id="a_edge20_Node000016_Node000017"><a xlink:title=" ">
<path fill="none" stroke="#63b8ff" d="M457.2,-330C471.82,-330 486.77,-330 500.42,-330"/>
<polygon fill="#63b8ff" stroke="#63b8ff" points="500.58,-333.5 510.58,-330 500.58,-326.5 500.58,-333.5"/>
</a>
</g>
</g>
<!-- Node20 -->
<g id="Node000020" class="node">
<title>Node20</title>
<g id="a_Node000020"><a xlink:href="namespacedetail.html#a52a5e2ed06c229dcf95ea5c46d48d05e" target="_top" xlink:title=" ">
<polygon fill="white" stroke="#666666" points="406,-24.5 347,-24.5 347,-5.5 406,-5.5 406,-24.5"/>
<text text-anchor="middle" x="376.5" y="-12.5" font-family="Helvetica,sans-Serif" font-size="10.00">detail::in</text>
</a>
</g>
</g>
<!-- Node19&#45;&gt;Node20 -->
<g id="edge25_Node000019_Node000020" class="edge">
<title>Node19&#45;&gt;Node20</title>
<g id="a_edge25_Node000019_Node000020"><a xlink:title=" ">
<path fill="none" stroke="#63b8ff" d="M244.51,-15C274.07,-15 310.02,-15 336.77,-15"/>
<polygon fill="#63b8ff" stroke="#63b8ff" points="336.91,-18.5 346.91,-15 336.91,-11.5 336.91,-18.5"/>
</a>
</g>
</g>
<!-- Node20&#45;&gt;Node20 -->
<g id="edge26_Node000020_Node000020" class="edge">
<title>Node20&#45;&gt;Node20</title>
<g id="a_edge26_Node000020_Node000020"><a xlink:title=" ">
<path fill="none" stroke="#63b8ff" d="M349.07,-24.58C335.72,-33.23 344.86,-42.5 376.5,-42.5 397.76,-42.5 408.86,-38.32 409.81,-32.95"/>
<polygon fill="#63b8ff" stroke="#63b8ff" points="412.55,-30.76 403.93,-24.58 406.82,-34.78 412.55,-30.76"/>
</a>
</g>
</g>
<!-- Node22&#45;&gt;Node6 -->
<g id="edge30_Node000022_Node000006" class="edge">
<title>Node22&#45;&gt;Node6</title>
<g id="a_edge30_Node000022_Node000006"><a xlink:title=" ">
<path fill="none" stroke="#63b8ff" d="M227.05,-102.51C260.31,-109.34 309.02,-119.34 341.47,-126.01"/>
<polygon fill="#63b8ff" stroke="#63b8ff" points="340.89,-129.46 351.39,-128.05 342.3,-122.61 340.89,-129.46"/>
</a>
</g>
</g>
<!-- Node23 -->
<g id="Node000023" class="node">
<title>Node23</title>
<g id="a_Node000023"><a xlink:href="namespacedetail.html#a05e3e231207d3f28f83261c2e7ad2fe5" target="_top" xlink:title=" ">
<polygon fill="white" stroke="#666666" points="430,-87.5 323,-87.5 323,-68.5 430,-68.5 430,-87.5"/>
<text text-anchor="middle" x="376.5" y="-75.5" font-family="Helvetica,sans-Serif" font-size="10.00">detail::get_iterator</text>
</a>
</g>
</g>
<!-- Node22&#45;&gt;Node23 -->
<g id="edge31_Node000022_Node000023" class="edge">
<title>Node22&#45;&gt;Node23</title>
<g id="a_edge31_Node000022_Node000023"><a xlink:title=" ">
<path fill="none" stroke="#63b8ff" d="M227.05,-91.64C251.43,-89.4 284.13,-86.4 312.63,-83.78"/>
<polygon fill="#63b8ff" stroke="#63b8ff" points="313.27,-87.23 322.91,-82.83 312.63,-80.26 313.27,-87.23"/>
</a>
</g>
</g>
<!-- Node23&#45;&gt;Node23 -->
<g id="edge32_Node000023_Node000023" class="edge">
<title>Node23&#45;&gt;Node23</title>
<g id="a_edge32_Node000023_Node000023"><a xlink:title=" ">
<path fill="none" stroke="#63b8ff" d="M349.07,-87.58C335.72,-96.23 344.86,-105.5 376.5,-105.5 397.76,-105.5 408.86,-101.32 409.81,-95.95"/>
<polygon fill="#63b8ff" stroke="#63b8ff" points="412.55,-93.76 403.93,-87.58 406.82,-97.78 412.55,-93.76"/>
</a>
</g>
</g>
</g>
</svg>
