<?xml version="1.0" encoding="UTF-8" standalone="no"?>
<!DOCTYPE svg PUBLIC "-//W3C//DTD SVG 1.1//EN"
 "http://www.w3.org/Graphics/SVG/1.1/DTD/svg11.dtd">
<!-- Generated by graphviz version 2.42.4 (0)
 -->
<!-- Title: detail::countl_zero_fallback Pages: 1 -->
<svg width="726pt" height="114pt"
 viewBox="0.00 0.00 726.00 113.50" xmlns="http://www.w3.org/2000/svg" xmlns:xlink="http://www.w3.org/1999/xlink">
<g id="graph0" class="graph" transform="scale(1 1) rotate(0) translate(4 109.5)">
<title>detail::countl_zero_fallback</title>
<!-- Node1 -->
<g id="Node000001" class="node">
<title>Node1</title>
<g id="a_Node000001"><a xlink:title=" ">
<polygon fill="#999999" stroke="#666666" points="718,-43.5 611,-43.5 611,-13.5 718,-13.5 718,-43.5"/>
<text text-anchor="start" x="619" y="-31.5" font-family="Helvetica,sans-Serif" font-size="10.00">detail::countl_zero</text>
<text text-anchor="middle" x="664.5" y="-20.5" font-family="Helvetica,sans-Serif" font-size="10.00">_fallback</text>
</a>
</g>
</g>
<!-- Node2 -->
<g id="Node000002" class="node">
<title>Node2</title>
<g id="a_Node000002"><a xlink:href="namespacedetail.html#af252d1b8eaeab79d234b012c14fd58b0" target="_top" xlink:title=" ">
<polygon fill="white" stroke="#666666" points="575,-57 468,-57 468,-38 575,-38 575,-57"/>
<text text-anchor="middle" x="521.5" y="-45" font-family="Helvetica,sans-Serif" font-size="10.00">detail::countl_zero</text>
</a>
</g>
</g>
<!-- Node1&#45;&gt;Node2 -->
<g id="edge1_Node000001_Node000002" class="edge">
<title>Node1&#45;&gt;Node2</title>
<g id="a_edge1_Node000001_Node000002"><a xlink:title=" ">
<path fill="none" stroke="#63b8ff" d="M600.95,-36.93C592.3,-38.09 583.49,-39.28 575.05,-40.42"/>
<polygon fill="#63b8ff" stroke="#63b8ff" points="601.55,-40.38 611,-35.57 600.62,-33.44 601.55,-40.38"/>
</a>
</g>
</g>
<!-- Node7 -->
<g id="Node000007" class="node">
<title>Node7</title>
<g id="a_Node000007"><a xlink:href="namespacedetail.html#a2702395aa58ba76ee2ecab3bfdb3cc3b" target="_top" xlink:title=" ">
<polygon fill="white" stroke="#666666" points="575,-20 468,-20 468,-1 575,-1 575,-20"/>
<text text-anchor="middle" x="521.5" y="-8" font-family="Helvetica,sans-Serif" font-size="10.00">detail::countl_zero</text>
</a>
</g>
</g>
<!-- Node1&#45;&gt;Node7 -->
<g id="edge7_Node000001_Node000007" class="edge">
<title>Node1&#45;&gt;Node7</title>
<g id="a_edge7_Node000001_Node000007"><a xlink:title=" ">
<path fill="none" stroke="#63b8ff" d="M600.95,-20.51C592.3,-19.41 583.49,-18.29 575.05,-17.21"/>
<polygon fill="#63b8ff" stroke="#63b8ff" points="600.63,-24 611,-21.8 601.52,-17.06 600.63,-24"/>
</a>
</g>
</g>
<!-- Node3 -->
<g id="Node000003" class="node">
<title>Node3</title>
<g id="a_Node000003"><a xlink:href="classdetail_1_1bigint.html#a8351139b55eb772c8f1c9f86e8e66e8f" target="_top" xlink:title=" ">
<polygon fill="white" stroke="#666666" points="426,-105.5 310,-105.5 310,-75.5 426,-75.5 426,-105.5"/>
<text text-anchor="start" x="318" y="-93.5" font-family="Helvetica,sans-Serif" font-size="10.00">detail::bigint::assign</text>
<text text-anchor="middle" x="368" y="-82.5" font-family="Helvetica,sans-Serif" font-size="10.00">_pow10</text>
</a>
</g>
</g>
<!-- Node2&#45;&gt;Node3 -->
<g id="edge2_Node000002_Node000003" class="edge">
<title>Node2&#45;&gt;Node3</title>
<g id="a_edge2_Node000002_Node000003"><a xlink:title=" ">
<path fill="none" stroke="#63b8ff" d="M477.09,-59.82C459.88,-64.71 439.92,-70.37 421.87,-75.49"/>
<polygon fill="#63b8ff" stroke="#63b8ff" points="478.21,-63.14 486.88,-57.04 476.3,-56.41 478.21,-63.14"/>
</a>
</g>
</g>
<!-- Node5 -->
<g id="Node000005" class="node">
<title>Node5</title>
<g id="a_Node000005"><a xlink:href="namespacedetail.html#add861c358ea50b446b1a06080adb44ba" target="_top" xlink:title=" ">
<polygon fill="white" stroke="#666666" points="110,-76 0,-76 0,-57 110,-57 110,-76"/>
<text text-anchor="middle" x="55" y="-64" font-family="Helvetica,sans-Serif" font-size="10.00">detail::format_float</text>
</a>
</g>
</g>
<!-- Node2&#45;&gt;Node5 -->
<g id="edge5_Node000002_Node000005" class="edge">
<title>Node2&#45;&gt;Node5</title>
<g id="a_edge5_Node000002_Node000005"><a xlink:title=" ">
<path fill="none" stroke="#63b8ff" d="M457.41,-50.08C365.6,-53.84 196.73,-60.74 110.22,-64.28"/>
<polygon fill="#63b8ff" stroke="#63b8ff" points="457.82,-53.57 467.67,-49.66 457.53,-46.57 457.82,-53.57"/>
</a>
</g>
</g>
<!-- Node6 -->
<g id="Node000006" class="node">
<title>Node6</title>
<g id="a_Node000006"><a xlink:href="namespacedetail.html#a718888554bf1561a88969b304e570395" target="_top" xlink:title=" ">
<polygon fill="white" stroke="#666666" points="432,-19 304,-19 304,0 432,0 432,-19"/>
<text text-anchor="middle" x="368" y="-7" font-family="Helvetica,sans-Serif" font-size="10.00">detail::format_hexfloat</text>
</a>
</g>
</g>
<!-- Node2&#45;&gt;Node6 -->
<g id="edge6_Node000002_Node000006" class="edge">
<title>Node2&#45;&gt;Node6</title>
<g id="a_edge6_Node000002_Node000006"><a xlink:title=" ">
<path fill="none" stroke="#63b8ff" d="M472.5,-35.46C451.33,-30.15 426.81,-24 406.95,-19.02"/>
<polygon fill="#63b8ff" stroke="#63b8ff" points="471.72,-38.87 482.27,-37.91 473.42,-32.08 471.72,-38.87"/>
</a>
</g>
</g>
<!-- Node4 -->
<g id="Node000004" class="node">
<title>Node4</title>
<g id="a_Node000004"><a xlink:href="namespacedetail.html#af3eae8fdebff07dc2edca668eaf2f8bd" target="_top" xlink:title=" ">
<polygon fill="white" stroke="#666666" points="268,-97 146,-97 146,-78 268,-78 268,-97"/>
<text text-anchor="middle" x="207" y="-85" font-family="Helvetica,sans-Serif" font-size="10.00">detail::format_dragon</text>
</a>
</g>
</g>
<!-- Node3&#45;&gt;Node4 -->
<g id="edge3_Node000003_Node000004" class="edge">
<title>Node3&#45;&gt;Node4</title>
<g id="a_edge3_Node000003_Node000004"><a xlink:title=" ">
<path fill="none" stroke="#63b8ff" d="M299.38,-89.22C289.04,-89.03 278.43,-88.83 268.27,-88.64"/>
<polygon fill="#63b8ff" stroke="#63b8ff" points="299.53,-92.73 309.6,-89.42 299.67,-85.73 299.53,-92.73"/>
</a>
</g>
</g>
<!-- Node4&#45;&gt;Node5 -->
<g id="edge4_Node000004_Node000005" class="edge">
<title>Node4&#45;&gt;Node5</title>
<g id="a_edge4_Node000004_Node000005"><a xlink:title=" ">
<path fill="none" stroke="#63b8ff" d="M135.86,-77.68C127.29,-76.48 118.63,-75.27 110.34,-74.11"/>
<polygon fill="#63b8ff" stroke="#63b8ff" points="135.46,-81.16 145.85,-79.08 136.44,-74.23 135.46,-81.16"/>
</a>
</g>
</g>
</g>
</svg>
