<?xml version="1.0" encoding="UTF-8" standalone="no"?>
<!DOCTYPE svg PUBLIC "-//W3C//DTD SVG 1.1//EN"
 "http://www.w3.org/Graphics/SVG/1.1/DTD/svg11.dtd">
<!-- Generated by graphviz version 2.42.4 (0)
 -->
<!-- Title: formatter&lt; month, Char &gt;::format Pages: 1 -->
<svg width="615pt" height="91pt"
 viewBox="0.00 0.00 615.00 91.00" xmlns="http://www.w3.org/2000/svg" xmlns:xlink="http://www.w3.org/1999/xlink">
<g id="graph0" class="graph" transform="scale(1 1) rotate(0) translate(4 87)">
<title>formatter&lt; month, Char &gt;::format</title>
<!-- Node1 -->
<g id="Node000001" class="node">
<title>Node1</title>
<g id="a_Node000001"><a xlink:title=" ">
<polygon fill="#999999" stroke="#666666" points="134,-69.5 0,-69.5 0,-39.5 134,-39.5 134,-69.5"/>
<text text-anchor="start" x="8" y="-57.5" font-family="Helvetica,sans-Serif" font-size="10.00">formatter&lt; month, Char</text>
<text text-anchor="middle" x="67" y="-46.5" font-family="Helvetica,sans-Serif" font-size="10.00"> &gt;::format</text>
</a>
</g>
</g>
<!-- Node2 -->
<g id="Node000002" class="node">
<title>Node2</title>
<g id="a_Node000002"><a xlink:href="classdetail_1_1tm__writer.html#a20af039c85605e8764b9efd0417e2b12" target="_top" xlink:title=" ">
<polygon fill="white" stroke="#666666" points="274,-69.5 170,-69.5 170,-39.5 274,-39.5 274,-69.5"/>
<text text-anchor="start" x="178" y="-57.5" font-family="Helvetica,sans-Serif" font-size="10.00">detail::tm_writer::</text>
<text text-anchor="middle" x="222" y="-46.5" font-family="Helvetica,sans-Serif" font-size="10.00">on_abbr_month</text>
</a>
</g>
</g>
<!-- Node1&#45;&gt;Node2 -->
<g id="edge1_Node000001_Node000002" class="edge">
<title>Node1&#45;&gt;Node2</title>
<g id="a_edge1_Node000001_Node000002"><a xlink:title=" ">
<path fill="none" stroke="#63b8ff" d="M134.22,-54.5C142.72,-54.5 151.39,-54.5 159.8,-54.5"/>
<polygon fill="#63b8ff" stroke="#63b8ff" points="159.9,-58 169.9,-54.5 159.9,-51 159.9,-58"/>
</a>
</g>
</g>
<!-- Node3 -->
<g id="Node000003" class="node">
<title>Node3</title>
<g id="a_Node000003"><a xlink:href="namespacedetail.html#a13520d8a7cb6dd1f15f6d06a5471d70d" target="_top" xlink:title=" ">
<polygon fill="white" stroke="#666666" points="464,-83 310,-83 310,-64 464,-64 464,-83"/>
<text text-anchor="middle" x="387" y="-71" font-family="Helvetica,sans-Serif" font-size="10.00">detail::tm_mon_short_name</text>
</a>
</g>
</g>
<!-- Node2&#45;&gt;Node3 -->
<g id="edge2_Node000002_Node000003" class="edge">
<title>Node2&#45;&gt;Node3</title>
<g id="a_edge2_Node000002_Node000003"><a xlink:title=" ">
<path fill="none" stroke="#63b8ff" d="M274.13,-60.46C282.4,-61.42 291.17,-62.45 300,-63.48"/>
<polygon fill="#63b8ff" stroke="#63b8ff" points="299.64,-66.96 309.98,-64.64 300.45,-60 299.64,-66.96"/>
</a>
</g>
</g>
<!-- Node4 -->
<g id="Node000004" class="node">
<title>Node4</title>
<g id="a_Node000004"><a xlink:href="namespacedetail.html#a29dacf26eedc9e3575fb57329a5ca0a3" target="_top" xlink:title=" ">
<polygon fill="white" stroke="#666666" points="424.5,-46 349.5,-46 349.5,-27 424.5,-27 424.5,-46"/>
<text text-anchor="middle" x="387" y="-34" font-family="Helvetica,sans-Serif" font-size="10.00">detail::write</text>
</a>
</g>
</g>
<!-- Node2&#45;&gt;Node4 -->
<g id="edge3_Node000002_Node000004" class="edge">
<title>Node2&#45;&gt;Node4</title>
<g id="a_edge3_Node000002_Node000004"><a xlink:title=" ">
<path fill="none" stroke="#63b8ff" d="M274.13,-48.85C294.97,-46.55 318.91,-43.91 339.28,-41.66"/>
<polygon fill="#63b8ff" stroke="#63b8ff" points="339.72,-45.13 349.27,-40.56 338.95,-38.17 339.72,-45.13"/>
</a>
</g>
</g>
<!-- Node5 -->
<g id="Node000005" class="node">
<title>Node5</title>
<g id="a_Node000005"><a xlink:href="color_8h.html#a680fd35ea38d8c3b75d640cacfab53fd" target="_top" xlink:title=" ">
<polygon fill="white" stroke="#666666" points="578.5,-74 528.5,-74 528.5,-55 578.5,-55 578.5,-74"/>
<text text-anchor="middle" x="553.5" y="-62" font-family="Helvetica,sans-Serif" font-size="10.00">format</text>
</a>
</g>
</g>
<!-- Node4&#45;&gt;Node5 -->
<g id="edge4_Node000004_Node000005" class="edge">
<title>Node4&#45;&gt;Node5</title>
<g id="a_edge4_Node000004_Node000005"><a xlink:title=" ">
<path fill="none" stroke="#63b8ff" d="M424.51,-42.71C452.54,-47.49 490.97,-54.03 518.39,-58.69"/>
<polygon fill="#63b8ff" stroke="#63b8ff" points="517.86,-62.15 528.31,-60.38 519.04,-55.25 517.86,-62.15"/>
</a>
</g>
</g>
<!-- Node6 -->
<g id="Node000006" class="node">
<title>Node6</title>
<g id="a_Node000006"><a xlink:href="namespacedetail.html#a05e3e231207d3f28f83261c2e7ad2fe5" target="_top" xlink:title=" ">
<polygon fill="white" stroke="#666666" points="607,-19 500,-19 500,0 607,0 607,-19"/>
<text text-anchor="middle" x="553.5" y="-7" font-family="Helvetica,sans-Serif" font-size="10.00">detail::get_iterator</text>
</a>
</g>
</g>
<!-- Node4&#45;&gt;Node6 -->
<g id="edge5_Node000004_Node000006" class="edge">
<title>Node4&#45;&gt;Node6</title>
<g id="a_edge5_Node000004_Node000006"><a xlink:title=" ">
<path fill="none" stroke="#63b8ff" d="M424.51,-30.51C443.72,-27.36 467.8,-23.4 489.88,-19.78"/>
<polygon fill="#63b8ff" stroke="#63b8ff" points="490.56,-23.21 499.86,-18.14 489.43,-16.31 490.56,-23.21"/>
</a>
</g>
</g>
<!-- Node6&#45;&gt;Node6 -->
<g id="edge6_Node000006_Node000006" class="edge">
<title>Node6&#45;&gt;Node6</title>
<g id="a_edge6_Node000006_Node000006"><a xlink:title=" ">
<path fill="none" stroke="#63b8ff" d="M527.91,-19.08C515.47,-27.73 524,-37 553.5,-37 572.86,-37 583.19,-33.01 584.49,-27.82"/>
<polygon fill="#63b8ff" stroke="#63b8ff" points="587.32,-25.75 579.09,-19.08 581.37,-29.43 587.32,-25.75"/>
</a>
</g>
</g>
</g>
</svg>
